<svg width="916" height="69" viewBox="0 0 916 69" fill="none" xmlns="http://www.w3.org/2000/svg">
<path d="M55.3455 12.4531C56.5173 17.9414 57.9236 23.918 59.5642 30.3828C60.3455 34.0352 61.7126 41.0664 63.6658 51.4766C61.615 51.8672 59.5837 52.0625 57.572 52.0625H51.8298C51.5759 52.0625 51.1072 48.1953 50.4236 40.4609C50.3455 40.4609 50.3064 40.3828 50.3064 40.2266H46.322C45.4626 48.0391 44.9548 52.2969 44.7986 53H42.2205C38.9783 53 35.2283 52.7656 30.9705 52.2969C33.0798 42.9219 36.0486 31.75 39.8767 18.7812C39.8767 18.5859 40.4236 16.5547 41.5173 12.6875C48.5876 12.5313 53.197 12.4531 55.3455 12.4531ZM47.8455 25.9297C47.533 27.4922 47.1423 29.0547 46.6736 30.6172H49.4861V30.5C49.4861 30.1289 49.0173 28.6055 48.0798 25.9297H47.8455ZM88.7439 12.4531H95.8923C99.0564 12.4531 101.205 13.0781 102.338 14.3281C105.306 16.8281 106.791 20.5781 106.791 25.5781V26.3984C106.791 30.2461 105.345 32.7852 102.455 34.0156C101.498 34.3281 100.912 34.4844 100.697 34.4844V34.6016C102.025 34.875 103.51 36.0469 105.15 38.1172C106.478 39.9531 107.142 41.8281 107.142 43.7422V43.9766C107.142 48.0391 105.658 50.6953 102.689 51.9453C101.01 52.6484 99.408 53 97.8845 53C86.6345 53 81.0095 52.5703 81.0095 51.7109C81.0095 47.7852 80.9314 34.7773 80.7751 12.6875C80.8533 12.6875 80.8923 12.6484 80.8923 12.5703C84.3103 12.4922 86.9275 12.4531 88.7439 12.4531ZM91.2048 22.2969V27.5703C93.4119 27.5703 94.9744 26.7891 95.8923 25.2266C96.0486 24.6797 96.1267 24.25 96.1267 23.9375C96.1267 23.0391 95.658 22.375 94.7205 21.9453C93.6072 22.0234 92.4353 22.1406 91.2048 22.2969ZM91.908 42.3359H91.322C91.1658 42.3555 91.0876 42.4336 91.0876 42.5703V43.7422C91.0876 44.4062 91.0486 45.3828 90.9705 46.6719H91.0876C93.5876 46.6719 95.3455 46.0469 96.3611 44.7969C96.4392 44.3672 96.4783 44.0547 96.4783 43.8594C96.4783 42.8828 95.3455 42.3359 93.0798 42.2188C92.6697 42.2969 92.2791 42.3359 91.908 42.3359ZM129.994 12.3359H130.58C139.037 12.3359 144.74 15.6953 147.689 22.4141C148.627 24.8359 149.095 27.4531 149.095 30.2656V31.2031C149.095 41.0273 145.228 47.7852 137.494 51.4766C134.974 52.4922 132.552 53 130.228 53H128.822C122.904 53 117.592 50.3438 112.885 45.0312C110.697 41.8867 109.603 38.6836 109.603 35.4219V33.8984C109.603 23.957 113.431 17.2773 121.088 13.8594C123.959 12.8437 126.927 12.3359 129.994 12.3359ZM123.431 34.1328C123.431 36.8867 125.111 39.3867 128.47 41.6328C129.427 41.9453 130.131 42.1016 130.58 42.1016C133.138 42.1016 135.365 40.6172 137.26 37.6484C137.885 36.3984 138.197 35.0312 138.197 33.5469C138.197 30.0898 136.595 27.707 133.392 26.3984C132.162 26.0859 131.146 25.9297 130.345 25.9297C127.201 25.9297 124.974 28.0391 123.666 32.2578C123.51 33.1562 123.431 33.7812 123.431 34.1328ZM159.525 12.4531H166.674C169.838 12.4531 171.986 13.0781 173.119 14.3281C176.088 16.8281 177.572 20.5781 177.572 25.5781V26.3984C177.572 30.2461 176.127 32.7852 173.236 34.0156C172.279 34.3281 171.693 34.4844 171.478 34.4844V34.6016C172.806 34.875 174.291 36.0469 175.931 38.1172C177.26 39.9531 177.924 41.8281 177.924 43.7422V43.9766C177.924 48.0391 176.439 50.6953 173.47 51.9453C171.791 52.6484 170.189 53 168.666 53C157.416 53 151.791 52.5703 151.791 51.7109C151.791 47.7852 151.713 34.7773 151.556 12.6875C151.635 12.6875 151.674 12.6484 151.674 12.5703C155.092 12.4922 157.709 12.4531 159.525 12.4531ZM161.986 22.2969V27.5703C164.193 27.5703 165.756 26.7891 166.674 25.2266C166.83 24.6797 166.908 24.25 166.908 23.9375C166.908 23.0391 166.439 22.375 165.502 21.9453C164.388 22.0234 163.217 22.1406 161.986 22.2969ZM162.689 42.3359H162.103C161.947 42.3555 161.869 42.4336 161.869 42.5703V43.7422C161.869 44.4062 161.83 45.3828 161.752 46.6719H161.869C164.369 46.6719 166.127 46.0469 167.142 44.7969C167.22 44.3672 167.26 44.0547 167.26 43.8594C167.26 42.8828 166.127 42.3359 163.861 42.2188C163.451 42.2969 163.06 42.3359 162.689 42.3359ZM188.353 12.4531H195.502C198.666 12.4531 200.814 13.0781 201.947 14.3281C204.916 16.8281 206.4 20.5781 206.4 25.5781V26.3984C206.4 30.2461 204.955 32.7852 202.064 34.0156C201.107 34.3281 200.521 34.4844 200.306 34.4844V34.6016C201.635 34.875 203.119 36.0469 204.76 38.1172C206.088 39.9531 206.752 41.8281 206.752 43.7422V43.9766C206.752 48.0391 205.267 50.6953 202.299 51.9453C200.619 52.6484 199.017 53 197.494 53C186.244 53 180.619 52.5703 180.619 51.7109C180.619 47.7852 180.541 34.7773 180.385 12.6875C180.463 12.6875 180.502 12.6484 180.502 12.5703C183.92 12.4922 186.537 12.4531 188.353 12.4531ZM190.814 22.2969V27.5703C193.021 27.5703 194.584 26.7891 195.502 25.2266C195.658 24.6797 195.736 24.25 195.736 23.9375C195.736 23.0391 195.267 22.375 194.33 21.9453C193.217 22.0234 192.045 22.1406 190.814 22.2969ZM191.517 42.3359H190.931C190.775 42.3555 190.697 42.4336 190.697 42.5703V43.7422C190.697 44.4062 190.658 45.3828 190.58 46.6719H190.697C193.197 46.6719 194.955 46.0469 195.97 44.7969C196.049 44.3672 196.088 44.0547 196.088 43.8594C196.088 42.8828 194.955 42.3359 192.689 42.2188C192.279 42.2969 191.888 42.3359 191.517 42.3359ZM215.892 11.9844H219.525C221.166 11.9844 221.986 12.2578 221.986 12.8047C224.74 18.332 226.732 21.7695 227.963 23.1172C229.076 21.5742 230.756 18.0195 233.002 12.4531L233.47 11.9844H234.994C239.154 11.9844 242.943 12.6094 246.361 13.8594C242.943 18.918 239.857 23.957 237.103 28.9766C235.072 31.9062 234.056 33.6641 234.056 34.25C233.588 37.5508 233.353 43.7617 233.353 52.8828C233.275 52.8828 233.236 52.9219 233.236 53C232.455 52.9219 231.869 52.8828 231.478 52.8828H222.806L222.572 52.7656C222.572 51.6914 222.455 47.082 222.22 38.9375C222.299 36.7891 222.338 35.3047 222.338 34.4844C217.65 28.5469 214.76 24.2891 213.666 21.7109C211.381 17.6484 209.896 14.7578 209.213 13.0391C211.947 12.3359 214.174 11.9844 215.892 11.9844ZM290.658 12.1016C294.642 12.2188 296.635 12.375 296.635 12.5703C296.478 16.3203 296.361 21.125 296.283 26.9844C296.361 35.5195 296.4 43.8398 296.4 51.9453L296.166 52.0625C291.029 51.9844 287.162 51.9453 284.564 51.9453H283.861C283.705 51.9453 283.627 51.8672 283.627 51.7109V47.1406C283.627 45.207 283.51 42.8633 283.275 40.1094H278.705C278.861 48.0977 278.939 52.3555 278.939 52.8828L278.705 53C271.205 52.8438 266.674 52.7656 265.111 52.7656C265.033 52.6094 264.994 52.4922 264.994 52.4141C264.994 34.4258 264.564 22.1992 263.705 15.7344C263.705 15.4219 263.627 14.4453 263.47 12.8047C263.549 12.8047 263.588 12.7656 263.588 12.6875C266.302 12.6094 268.256 12.5703 269.447 12.5703H277.416C277.787 12.5703 278.099 17.2578 278.353 26.6328V28.1562H283.158V28.0391L282.689 12.8047C283.392 12.5117 286.049 12.2773 290.658 12.1016ZM299.447 12.9219H312.22C312.377 12.9414 312.455 13.0195 312.455 13.1562V15.5C312.455 22.4531 312.611 31.5547 312.924 42.8047C312.924 43.918 312.767 47.2383 312.455 52.7656L312.103 53H300.033L299.799 52.8828C299.799 41.0859 299.564 30.5 299.095 21.125V18.3125C299.095 17.1797 299.135 15.4219 299.213 13.0391L299.447 12.9219ZM315.619 14.3281H328.744L328.978 14.4453C329.056 20.5391 329.095 25.3047 329.095 28.7422V42.6875H329.213C332.416 42.8438 334.291 42.9219 334.838 42.9219H337.767C337.924 42.9414 338.002 43.0195 338.002 43.1562C337.924 47.1016 337.885 50.1875 337.885 52.4141V52.7656C337.885 52.9219 337.767 53 337.533 53C334.486 53 327.455 52.8438 316.439 52.5312L316.322 52.2969C316.322 46.8867 316.01 34.2695 315.385 14.4453L315.619 14.3281ZM340.697 14.3281H353.822L354.056 14.4453C354.135 20.5391 354.174 25.3047 354.174 28.7422V42.6875H354.291C357.494 42.8438 359.369 42.9219 359.916 42.9219H362.845C363.002 42.9414 363.08 43.0195 363.08 43.1562C363.002 47.1016 362.963 50.1875 362.963 52.4141V52.7656C362.963 52.9219 362.845 53 362.611 53C359.564 53 352.533 52.8438 341.517 52.5312L341.4 52.2969C341.4 46.8867 341.088 34.2695 340.463 14.4453L340.697 14.3281ZM404.564 12.4531C405.736 17.9414 407.142 23.918 408.783 30.3828C409.564 34.0352 410.931 41.0664 412.885 51.4766C410.834 51.8672 408.802 52.0625 406.791 52.0625H401.049C400.795 52.0625 400.326 48.1953 399.642 40.4609C399.564 40.4609 399.525 40.3828 399.525 40.2266H395.541C394.681 48.0391 394.174 52.2969 394.017 53H391.439C388.197 53 384.447 52.7656 380.189 52.2969C382.299 42.9219 385.267 31.75 389.095 18.7812C389.095 18.5859 389.642 16.5547 390.736 12.6875C397.806 12.5313 402.416 12.4531 404.564 12.4531ZM397.064 25.9297C396.752 27.4922 396.361 29.0547 395.892 30.6172H398.705V30.5C398.705 30.1289 398.236 28.6055 397.299 25.9297H397.064ZM433.627 12.5703C437.006 12.5703 439.388 14.5234 440.775 18.4297C441.088 19.4258 441.283 20.7539 441.361 22.4141C441.361 28.5859 438.236 32.9609 431.986 35.5391C430.502 36.2422 428.822 36.9062 426.947 37.5312C426.635 40.1484 426.439 42.3359 426.361 44.0938C426.439 46.6133 426.478 48.9961 426.478 51.2422V52.4141C426.01 52.8047 424.486 53 421.908 53H419.681C417.65 53 416.635 52.8828 416.635 52.6484C416.088 47.9414 415.697 43.5664 415.463 39.5234C415.541 33.0977 415.58 28.8008 415.58 26.6328C415.424 18.5664 415.345 14.1523 415.345 13.3906C420.756 12.8437 426.849 12.5703 433.627 12.5703ZM426.361 22.6484L426.478 23.4688V23.7031C426.478 24.3672 426.517 25.4219 426.595 26.8672C428.314 26.8672 429.76 26.2422 430.931 24.9922C431.166 24.6016 431.283 24.2891 431.283 24.0547V23.1172C431.283 22.6484 430.463 22.4141 428.822 22.4141C427.709 22.4141 426.888 22.4922 426.361 22.6484ZM462.103 12.5703C465.482 12.5703 467.865 14.5234 469.252 18.4297C469.564 19.4258 469.76 20.7539 469.838 22.4141C469.838 28.5859 466.713 32.9609 460.463 35.5391C458.978 36.2422 457.299 36.9062 455.424 37.5312C455.111 40.1484 454.916 42.3359 454.838 44.0938C454.916 46.6133 454.955 48.9961 454.955 51.2422V52.4141C454.486 52.8047 452.963 53 450.385 53H448.158C446.127 53 445.111 52.8828 445.111 52.6484C444.564 47.9414 444.174 43.5664 443.939 39.5234C444.017 33.0977 444.056 28.8008 444.056 26.6328C443.9 18.5664 443.822 14.1523 443.822 13.3906C449.232 12.8437 455.326 12.5703 462.103 12.5703ZM454.838 22.6484L454.955 23.4688V23.7031C454.955 24.3672 454.994 25.4219 455.072 26.8672C456.791 26.8672 458.236 26.2422 459.408 24.9922C459.642 24.6016 459.76 24.2891 459.76 24.0547V23.1172C459.76 22.6484 458.939 22.4141 457.299 22.4141C456.185 22.4141 455.365 22.4922 454.838 22.6484ZM486.244 12.3359H486.83C491.635 12.3359 494.642 13.3516 495.853 15.3828C497.494 17.4141 498.314 20.2266 498.314 23.8203C498.314 28.6445 495.619 32.1992 490.228 34.4844V34.7188C493.138 36.4375 495.287 38.5859 496.674 41.1641C497.689 43.7617 498.197 45.832 498.197 47.375C498.197 48.0586 498.08 49.8555 497.845 52.7656H497.728C491.713 52.2773 488.705 51.7695 488.705 51.2422C488.431 45.9297 488.041 43.2734 487.533 43.2734C486.517 41.8477 485.345 40.793 484.017 40.1094C483.861 41.5156 483.705 43.8984 483.549 47.2578C483.705 50.2461 483.783 51.8867 483.783 52.1797C482.299 52.7266 480.931 53 479.681 53H479.213C477.279 53 475.404 52.8047 473.588 52.4141C473.431 48.2344 473.353 43.0781 473.353 36.9453V32.4922C473.353 25.0898 473.002 18.6055 472.299 13.0391H472.416C477.748 12.5703 482.357 12.3359 486.244 12.3359ZM483.431 22.4141L483.549 22.8828C483.549 23.7812 483.627 25.1484 483.783 26.9844C486.986 26.6523 488.588 25.5586 488.588 23.7031C488.666 23.5469 488.705 23.4297 488.705 23.3516C488.705 22.4141 487.924 21.9453 486.361 21.9453C485.853 21.9453 484.877 22.1016 483.431 22.4141ZM501.01 11.6328C517.65 12.2773 525.97 12.668 525.97 12.8047C526.439 19.2695 526.713 23.3711 526.791 25.1094C526.713 25.1094 526.674 25.1484 526.674 25.2266L513.314 25.6953L513.431 25.9297C513.431 26.75 513.51 28.0391 513.666 29.7969C519.31 30.1875 522.474 30.4609 523.158 30.6172V30.7344C523.002 34.0156 522.845 35.8125 522.689 36.125L514.252 36.3594C514.623 39.7969 514.896 41.5156 515.072 41.5156C522.806 42.2188 527.103 42.6484 527.963 42.8047V42.9219C527.572 49.6406 527.26 53 527.025 53H524.681C520.463 53 512.494 52.4922 500.775 51.4766V11.8672C500.795 11.7109 500.873 11.6328 501.01 11.6328ZM548.353 11.5156H549.525C553.744 11.5156 557.416 13.4297 560.541 17.2578V17.375C559.935 21.3008 558.334 24.9336 555.736 28.2734C553.451 26.7891 551.498 26.0469 549.877 26.0469H549.291C547.123 26.0469 545.209 27.375 543.549 30.0312C543.002 31.1055 542.728 32.3164 542.728 33.6641C542.728 36.9844 543.588 39.1719 545.306 40.2266C546.478 40.7734 547.689 41.0469 548.939 41.0469H549.174C550.97 41.0469 552.885 40.5 554.916 39.4062C556.322 40.207 557.572 42.4336 558.666 46.0859C559.213 48.0586 559.486 49.8164 559.486 51.3594C555.345 52.4531 551.517 53 548.002 53C540.99 53 536.263 50.3438 533.822 45.0312C531.635 40.793 530.541 36.9258 530.541 33.4297C530.463 33.4297 530.424 33.2734 530.424 32.9609C530.424 26.4766 532.572 20.9297 536.869 16.3203C540.482 13.1172 544.31 11.5156 548.353 11.5156ZM563.236 12.9219H576.01C576.166 12.9414 576.244 13.0195 576.244 13.1562V15.5C576.244 22.4531 576.4 31.5547 576.713 42.8047C576.713 43.918 576.556 47.2383 576.244 52.7656L575.892 53H563.822L563.588 52.8828C563.588 41.0859 563.353 30.5 562.885 21.125V18.3125C562.885 17.1797 562.924 15.4219 563.002 13.0391L563.236 12.9219ZM603.549 12.4531C604.72 17.9414 606.127 23.918 607.767 30.3828C608.549 34.0352 609.916 41.0664 611.869 51.4766C609.818 51.8672 607.787 52.0625 605.775 52.0625H600.033C599.779 52.0625 599.31 48.1953 598.627 40.4609C598.549 40.4609 598.51 40.3828 598.51 40.2266H594.525C593.666 48.0391 593.158 52.2969 593.002 53H590.424C587.181 53 583.431 52.7656 579.174 52.2969C581.283 42.9219 584.252 31.75 588.08 18.7812C588.08 18.5859 588.627 16.5547 589.72 12.6875C596.791 12.5313 601.4 12.4531 603.549 12.4531ZM596.049 25.9297C595.736 27.4922 595.345 29.0547 594.877 30.6172H597.689V30.5C597.689 30.1289 597.22 28.6055 596.283 25.9297H596.049ZM614.564 11.6328C616.4 11.6328 627.26 11.8281 647.142 12.2188C647.142 12.2969 647.181 12.3359 647.26 12.3359C647.494 19.3086 647.611 23.4883 647.611 24.875C646.986 25.0312 643.47 25.2266 637.064 25.4609C637.142 26.3203 637.377 35.4609 637.767 52.8828L637.533 53C630.97 52.6875 627.689 52.4141 627.689 52.1797C626.185 34.3672 625.365 25.4609 625.228 25.4609C618.744 24.9922 615.111 24.6797 614.33 24.5234V11.8672C614.349 11.7109 614.428 11.6328 614.564 11.6328ZM650.424 12.9219H663.197C663.353 12.9414 663.431 13.0195 663.431 13.1562V15.5C663.431 22.4531 663.588 31.5547 663.9 42.8047C663.9 43.918 663.744 47.2383 663.431 52.7656L663.08 53H651.01L650.775 52.8828C650.775 41.0859 650.541 30.5 650.072 21.125V18.3125C650.072 17.1797 650.111 15.4219 650.189 13.0391L650.424 12.9219ZM686.752 12.3359H687.338C695.795 12.3359 701.498 15.6953 704.447 22.4141C705.385 24.8359 705.853 27.4531 705.853 30.2656V31.2031C705.853 41.0273 701.986 47.7852 694.252 51.4766C691.732 52.4922 689.31 53 686.986 53H685.58C679.662 53 674.349 50.3438 669.642 45.0312C667.455 41.8867 666.361 38.6836 666.361 35.4219V33.8984C666.361 23.957 670.189 17.2773 677.845 13.8594C680.717 12.8437 683.685 12.3359 686.752 12.3359ZM680.189 34.1328C680.189 36.8867 681.869 39.3867 685.228 41.6328C686.185 41.9453 686.888 42.1016 687.338 42.1016C689.896 42.1016 692.123 40.6172 694.017 37.6484C694.642 36.3984 694.955 35.0312 694.955 33.5469C694.955 30.0898 693.353 27.707 690.15 26.3984C688.92 26.0859 687.904 25.9297 687.103 25.9297C683.959 25.9297 681.732 28.0391 680.424 32.2578C680.267 33.1562 680.189 33.7812 680.189 34.1328ZM709.252 13.0391H715.814C716.361 13.5078 719.447 18.0391 725.072 26.6328H725.189V26.5156C725.267 22.6875 725.306 19.7188 725.306 17.6094V13.7422C725.326 13.5859 725.404 13.5078 725.541 13.5078C730.58 13.4297 734.642 13.3906 737.728 13.3906C737.885 13.4102 737.963 13.4883 737.963 13.625C736.947 29.25 736.01 42.2188 735.15 52.5312L734.799 52.7656C731.517 52.6875 729.369 52.6484 728.353 52.6484C724.76 47.3945 721.908 43.4883 719.799 40.9297C719.72 44.5234 719.681 47.2578 719.681 49.1328V52.7656C719.681 52.9219 719.603 53 719.447 53H715.111C713.236 53 711.049 52.9219 708.549 52.7656L708.314 52.4141C708.939 43.332 709.252 35.207 709.252 28.0391C709.252 22.2188 709.174 17.2578 709.017 13.1562L709.252 13.0391ZM763.041 12.4531H770.189C773.353 12.4531 775.502 13.0781 776.635 14.3281C779.603 16.8281 781.088 20.5781 781.088 25.5781V26.3984C781.088 30.2461 779.642 32.7852 776.752 34.0156C775.795 34.3281 775.209 34.4844 774.994 34.4844V34.6016C776.322 34.875 777.806 36.0469 779.447 38.1172C780.775 39.9531 781.439 41.8281 781.439 43.7422V43.9766C781.439 48.0391 779.955 50.6953 776.986 51.9453C775.306 52.6484 773.705 53 772.181 53C760.931 53 755.306 52.5703 755.306 51.7109C755.306 47.7852 755.228 34.7773 755.072 12.6875C755.15 12.6875 755.189 12.6484 755.189 12.5703C758.607 12.4922 761.224 12.4531 763.041 12.4531ZM765.502 22.2969V27.5703C767.709 27.5703 769.271 26.7891 770.189 25.2266C770.345 24.6797 770.424 24.25 770.424 23.9375C770.424 23.0391 769.955 22.375 769.017 21.9453C767.904 22.0234 766.732 22.1406 765.502 22.2969ZM766.205 42.3359H765.619C765.463 42.3555 765.385 42.4336 765.385 42.5703V43.7422C765.385 44.4062 765.345 45.3828 765.267 46.6719H765.385C767.885 46.6719 769.642 46.0469 770.658 44.7969C770.736 44.3672 770.775 44.0547 770.775 43.8594C770.775 42.8828 769.642 42.3359 767.377 42.2188C766.967 42.2969 766.576 42.3359 766.205 42.3359ZM784.135 14.3281H797.26L797.494 14.4453C797.572 20.5391 797.611 25.3047 797.611 28.7422V42.6875H797.728C800.931 42.8438 802.806 42.9219 803.353 42.9219H806.283C806.439 42.9414 806.517 43.0195 806.517 43.1562C806.439 47.1016 806.4 50.1875 806.4 52.4141V52.7656C806.4 52.9219 806.283 53 806.049 53C803.002 53 795.97 52.8438 784.955 52.5312L784.838 52.2969C784.838 46.8867 784.525 34.2695 783.9 14.4453L784.135 14.3281ZM829.369 12.3359H829.955C838.412 12.3359 844.115 15.6953 847.064 22.4141C848.002 24.8359 848.47 27.4531 848.47 30.2656V31.2031C848.47 41.0273 844.603 47.7852 836.869 51.4766C834.349 52.4922 831.928 53 829.603 53H828.197C822.279 53 816.967 50.3438 812.26 45.0312C810.072 41.8867 808.978 38.6836 808.978 35.4219V33.8984C808.978 23.957 812.806 17.2773 820.463 13.8594C823.334 12.8437 826.303 12.3359 829.369 12.3359ZM822.806 34.1328C822.806 36.8867 824.486 39.3867 827.845 41.6328C828.803 41.9453 829.506 42.1016 829.955 42.1016C832.513 42.1016 834.74 40.6172 836.635 37.6484C837.26 36.3984 837.572 35.0312 837.572 33.5469C837.572 30.0898 835.97 27.707 832.767 26.3984C831.537 26.0859 830.521 25.9297 829.72 25.9297C826.576 25.9297 824.349 28.0391 823.041 32.2578C822.885 33.1562 822.806 33.7812 822.806 34.1328ZM868.978 10.9297H869.681C874.154 10.9297 877.982 12.8828 881.166 16.7891C879.838 21.4375 878.041 24.9922 875.775 27.4531C873.47 26.125 871.439 25.4609 869.681 25.4609C866.693 25.4609 864.584 27.3359 863.353 31.0859C863.197 31.7109 863.119 32.375 863.119 33.0781V33.1953C863.119 36.2812 864.33 38.8594 866.752 40.9297C867.396 41.3984 868.099 41.6328 868.861 41.6328C869.72 41.6328 870.697 40.8125 871.791 39.1719C869.603 38.5859 868.51 38.1953 868.51 38C868.51 37.2188 868.431 35.6172 868.275 33.1953C868.412 31.6328 868.607 30.8516 868.861 30.8516H884.095C884.408 30.8516 884.564 32.5703 884.564 36.0078V39.7578C884.564 39.9141 884.486 39.9922 884.33 39.9922C881.595 39.8359 879.916 39.7578 879.291 39.7578V39.9922C879.291 46.2812 875.931 50.5391 869.213 52.7656C868.431 52.9219 867.65 53 866.869 53H866.635C862.084 53 858.021 50.2656 854.447 44.7969C852.103 40.4023 850.931 36.3008 850.931 32.4922C850.931 25.8516 853.08 20.2266 857.377 15.6172C860.892 12.4922 864.76 10.9297 868.978 10.9297Z" fill="#DD1A21"/>
<path d="M55.8108 12.2874C56.9826 17.7757 58.3889 23.7523 60.0295 30.2171C60.8108 33.8694 62.1779 40.9007 64.1311 51.3109C63.7209 51.4671 62.8225 51.5843 61.4358 51.6624V51.7796C61.592 52.8148 61.6701 53.3616 61.6701 53.4202C59.6975 53.8109 57.7053 54.0062 55.6936 54.0062H49.8342C49.6194 54.0062 49.3069 51.5062 48.8967 46.5062C48.5842 43.6155 48.3498 42.1702 48.1936 42.1702H46.5529C45.8498 48.5374 45.4201 52.0921 45.2639 52.8343H43.1545C43.1545 54.2405 42.9983 54.9437 42.6858 54.9437H40.1076C36.885 54.9437 33.174 54.7093 28.9748 54.2405C31.0061 45.4124 33.8576 34.6312 37.5295 21.8968C38.7795 17.3069 39.4826 14.8851 39.6389 14.6312H41.3967C41.5529 13.928 41.7483 13.2249 41.9826 12.5218C49.0529 12.3655 53.6623 12.2874 55.8108 12.2874ZM42.6858 13.4593L34.9514 41.5843C34.6389 42.7171 33.8576 45.9593 32.6076 51.3109C35.2248 51.6234 39.1701 51.7796 44.4436 51.7796C45.3029 44.1624 45.8108 39.9437 45.967 39.1234H51.4748C51.7287 39.1234 52.1975 42.9905 52.8811 50.7249C52.9592 50.7249 52.9983 50.803 52.9983 50.9593H57.217C61.0451 50.8616 62.9592 50.6663 62.9592 50.3734C60.5373 36.8773 58.3498 26.6429 56.3967 19.6702C55.6936 16.4476 55.2639 14.2991 55.1076 13.2249C53.135 13.303 48.9944 13.3812 42.6858 13.4593ZM48.6623 23.7718C49.2092 24.6898 49.8733 26.4476 50.6545 29.0452C50.967 30.2366 51.1233 30.9788 51.1233 31.2718L50.8889 31.389H46.2014L45.967 31.2718C47.0412 26.2718 47.9397 23.7718 48.6623 23.7718ZM89.2092 12.2874H96.3576C99.5217 12.2874 101.67 12.9124 102.803 14.1624C105.772 16.6624 107.256 20.4124 107.256 25.4124V26.2327C107.256 29.7679 105.967 32.2679 103.389 33.7327L102.451 34.9046V35.0218C104.619 36.1937 106.26 38.3812 107.373 41.5843C107.53 42.2093 107.608 42.8734 107.608 43.5765V43.8109C107.608 47.5609 106.24 50.2171 103.506 51.7796C101.768 53.889 99.2287 54.9437 95.8889 54.9437C86.3967 54.9437 80.8108 54.5921 79.1311 53.889C79.0529 51.1937 79.0139 49.7874 79.0139 49.6702C79.0139 42.5218 78.9358 30.8421 78.7795 14.6312L79.0139 14.514H81.2404V12.639L81.3576 12.4046C84.7756 12.3265 87.3928 12.2874 89.2092 12.2874ZM82.1779 13.3421V13.4593C82.3342 26.6038 82.4123 37.6194 82.4123 46.5062C82.4904 48.889 82.5295 50.4124 82.5295 51.0765C82.5295 51.389 87.7248 51.6624 98.1154 51.8968C101.768 51.8968 104.346 50.6077 105.85 48.0296C106.397 46.3499 106.67 44.8655 106.67 43.5765C106.67 40.9788 105.303 38.5179 102.569 36.1937C101.748 35.5687 100.264 35.0999 98.1154 34.7874C98.1154 34.4359 98.0764 34.2015 97.9983 34.0843L102.686 32.9124C105.108 31.9359 106.319 29.4749 106.319 25.5296C106.319 19.5921 104.248 15.6468 100.108 13.6937C99.8147 13.3812 97.9397 13.2249 94.4826 13.2249C93.7014 13.2249 89.5998 13.264 82.1779 13.3421ZM95.3029 20.8421C96.7873 21.3304 97.5295 22.3069 97.5295 23.7718V24.2405C97.5295 26.1546 96.0451 27.4827 93.0764 28.2249C92.3928 28.303 91.8069 28.3421 91.3186 28.3421H90.967C90.8108 28.3421 90.7326 28.264 90.7326 28.1077V21.428C90.7326 21.1741 92.2561 20.9788 95.3029 20.8421ZM91.6701 24.0062V27.4046C93.3108 27.4046 94.1311 27.053 94.1311 26.3499V25.8812C93.9162 24.553 93.3694 23.889 92.4904 23.889L91.6701 24.0062ZM93.6623 41.1155C95.7131 41.1155 97.0412 41.6624 97.6467 42.7562C97.8029 43.0491 97.8811 43.3616 97.8811 43.6937V44.0452C97.8811 45.5296 96.7092 46.5452 94.3654 47.0921C93.6428 47.3265 92.7444 47.4437 91.6701 47.4437H90.7326C90.5764 47.4437 90.4983 47.3655 90.4983 47.2093V46.389C90.4983 45.178 90.5373 43.5374 90.6154 41.4671C91.3576 41.2327 92.3733 41.1155 93.6623 41.1155ZM91.5529 44.2796V46.5062C92.0022 46.5062 92.9787 46.389 94.4826 46.1546V45.803C94.2678 44.7874 93.4084 44.2796 91.9045 44.2796H91.5529ZM130.459 12.1702H131.045C139.502 12.1702 145.205 15.5296 148.155 22.2484C149.092 24.6702 149.561 27.2874 149.561 30.0999V31.0374C149.561 39.3968 146.553 45.764 140.537 50.139C136.983 53.3421 132.92 54.9437 128.35 54.9437H126.826C121.338 54.9437 116.299 52.5999 111.709 47.9124C108.975 44.6116 107.608 41.0179 107.608 37.1312V37.014C107.608 27.7171 110.42 21.1546 116.045 17.3265C119.541 13.889 124.346 12.1702 130.459 12.1702ZM111.006 35.139C111.006 41.5257 114.639 46.5648 121.905 50.2562C124.678 51.3499 127.334 51.8968 129.873 51.8968H129.99C137.862 51.8968 143.487 48.1859 146.865 40.764C148.037 37.4827 148.623 34.0062 148.623 30.3343C148.623 21.4671 144.639 15.9593 136.67 13.8109C134.756 13.3421 132.803 13.1077 130.811 13.1077C120.83 13.1077 114.58 17.4437 112.061 26.1155C111.358 28.6937 111.006 31.7015 111.006 35.139ZM130.694 24.8265H130.928C135.518 24.8265 138.369 27.0921 139.483 31.6234C139.561 32.2874 139.6 32.8343 139.6 33.264V33.7327C139.6 38.0882 137.217 41.096 132.451 42.7562C131.787 42.8343 131.24 42.8734 130.811 42.8734C128.076 42.8734 125.615 40.803 123.428 36.6624C123.115 35.5296 122.959 34.6702 122.959 34.0843V33.8499C122.959 30.3343 124.561 27.5609 127.764 25.5296C128.76 25.0609 129.737 24.8265 130.694 24.8265ZM123.897 33.9671C123.897 36.721 125.576 39.221 128.936 41.4671C129.893 41.7796 130.596 41.9359 131.045 41.9359C133.467 41.9359 135.03 40.803 135.733 38.5374C136.045 37.6585 136.201 36.721 136.201 35.7249C136.201 32.2288 134.795 29.846 131.983 28.5765C130.752 28.1077 129.541 27.8734 128.35 27.8734C126.436 27.8734 125.264 28.6546 124.834 30.2171C124.209 31.4085 123.897 32.6585 123.897 33.9671ZM159.99 12.2874H167.139C170.303 12.2874 172.451 12.9124 173.584 14.1624C176.553 16.6624 178.037 20.4124 178.037 25.4124V26.2327C178.037 29.7679 176.748 32.2679 174.17 33.7327L173.233 34.9046V35.0218C175.401 36.1937 177.041 38.3812 178.155 41.5843C178.311 42.2093 178.389 42.8734 178.389 43.5765V43.8109C178.389 47.5609 177.022 50.2171 174.287 51.7796C172.549 53.889 170.01 54.9437 166.67 54.9437C157.178 54.9437 151.592 54.5921 149.912 53.889C149.834 51.1937 149.795 49.7874 149.795 49.6702C149.795 42.5218 149.717 30.8421 149.561 14.6312L149.795 14.514H152.022V12.639L152.139 12.4046C155.557 12.3265 158.174 12.2874 159.99 12.2874ZM152.959 13.3421V13.4593C153.115 26.6038 153.194 37.6194 153.194 46.5062C153.272 48.889 153.311 50.4124 153.311 51.0765C153.311 51.389 158.506 51.6624 168.897 51.8968C172.549 51.8968 175.127 50.6077 176.631 48.0296C177.178 46.3499 177.451 44.8655 177.451 43.5765C177.451 40.9788 176.084 38.5179 173.35 36.1937C172.53 35.5687 171.045 35.0999 168.897 34.7874C168.897 34.4359 168.858 34.2015 168.78 34.0843L173.467 32.9124C175.889 31.9359 177.1 29.4749 177.1 25.5296C177.1 19.5921 175.03 15.6468 170.889 13.6937C170.596 13.3812 168.721 13.2249 165.264 13.2249C164.483 13.2249 160.381 13.264 152.959 13.3421ZM166.084 20.8421C167.569 21.3304 168.311 22.3069 168.311 23.7718V24.2405C168.311 26.1546 166.826 27.4827 163.858 28.2249C163.174 28.303 162.588 28.3421 162.1 28.3421H161.748C161.592 28.3421 161.514 28.264 161.514 28.1077V21.428C161.514 21.1741 163.037 20.9788 166.084 20.8421ZM162.451 24.0062V27.4046C164.092 27.4046 164.912 27.053 164.912 26.3499V25.8812C164.697 24.553 164.151 23.889 163.272 23.889L162.451 24.0062ZM164.444 41.1155C166.494 41.1155 167.822 41.6624 168.428 42.7562C168.584 43.0491 168.662 43.3616 168.662 43.6937V44.0452C168.662 45.5296 167.49 46.5452 165.147 47.0921C164.424 47.3265 163.526 47.4437 162.451 47.4437H161.514C161.358 47.4437 161.28 47.3655 161.28 47.2093V46.389C161.28 45.178 161.319 43.5374 161.397 41.4671C162.139 41.2327 163.155 41.1155 164.444 41.1155ZM162.334 44.2796V46.5062C162.783 46.5062 163.76 46.389 165.264 46.1546V45.803C165.049 44.7874 164.19 44.2796 162.686 44.2796H162.334ZM188.819 12.2874H195.967C199.131 12.2874 201.28 12.9124 202.412 14.1624C205.381 16.6624 206.865 20.4124 206.865 25.4124V26.2327C206.865 29.7679 205.576 32.2679 202.998 33.7327L202.061 34.9046V35.0218C204.229 36.1937 205.869 38.3812 206.983 41.5843C207.139 42.2093 207.217 42.8734 207.217 43.5765V43.8109C207.217 47.5609 205.85 50.2171 203.115 51.7796C201.377 53.889 198.838 54.9437 195.498 54.9437C186.006 54.9437 180.42 54.5921 178.74 53.889C178.662 51.1937 178.623 49.7874 178.623 49.6702C178.623 42.5218 178.545 30.8421 178.389 14.6312L178.623 14.514H180.85V12.639L180.967 12.4046C184.385 12.3265 187.002 12.2874 188.819 12.2874ZM181.787 13.3421V13.4593C181.944 26.6038 182.022 37.6194 182.022 46.5062C182.1 48.889 182.139 50.4124 182.139 51.0765C182.139 51.389 187.334 51.6624 197.725 51.8968C201.377 51.8968 203.955 50.6077 205.459 48.0296C206.006 46.3499 206.28 44.8655 206.28 43.5765C206.28 40.9788 204.912 38.5179 202.178 36.1937C201.358 35.5687 199.873 35.0999 197.725 34.7874C197.725 34.4359 197.686 34.2015 197.608 34.0843L202.295 32.9124C204.717 31.9359 205.928 29.4749 205.928 25.5296C205.928 19.5921 203.858 15.6468 199.717 13.6937C199.424 13.3812 197.549 13.2249 194.092 13.2249C193.311 13.2249 189.209 13.264 181.787 13.3421ZM194.912 20.8421C196.397 21.3304 197.139 22.3069 197.139 23.7718V24.2405C197.139 26.1546 195.655 27.4827 192.686 28.2249C192.002 28.303 191.416 28.3421 190.928 28.3421H190.576C190.42 28.3421 190.342 28.264 190.342 28.1077V21.428C190.342 21.1741 191.865 20.9788 194.912 20.8421ZM191.28 24.0062V27.4046C192.92 27.4046 193.74 27.053 193.74 26.3499V25.8812C193.526 24.553 192.979 23.889 192.1 23.889L191.28 24.0062ZM193.272 41.1155C195.322 41.1155 196.651 41.6624 197.256 42.7562C197.412 43.0491 197.49 43.3616 197.49 43.6937V44.0452C197.49 45.5296 196.319 46.5452 193.975 47.0921C193.252 47.3265 192.354 47.4437 191.28 47.4437H190.342C190.186 47.4437 190.108 47.3655 190.108 47.2093V46.389C190.108 45.178 190.147 43.5374 190.225 41.4671C190.967 41.2327 191.983 41.1155 193.272 41.1155ZM191.162 44.2796V46.5062C191.612 46.5062 192.588 46.389 194.092 46.1546V45.803C193.877 44.7874 193.018 44.2796 191.514 44.2796H191.162ZM216.358 11.8187H219.99C221.631 11.8187 222.451 12.0921 222.451 12.639C224.795 17.346 226.553 20.471 227.725 22.014H227.842C228.936 19.1038 230.108 16.4085 231.358 13.928H232.647C233.408 12.5218 233.838 11.8187 233.936 11.8187H235.459C239.619 11.8187 243.408 12.4437 246.826 13.6937C243.408 18.7523 240.322 23.7913 237.569 28.8109C235.537 31.7405 234.522 33.4984 234.522 34.0843C234.053 37.3851 233.819 43.596 233.819 52.7171C233.74 52.7171 233.701 52.7562 233.701 52.8343C232.92 52.7562 232.334 52.7171 231.944 52.7171H231.475V54.7093L231.358 54.9437C230.44 54.8655 229.776 54.8265 229.365 54.8265H220.811C220.655 54.8265 220.576 54.7484 220.576 54.5921C220.42 46.7796 220.342 41.389 220.342 38.4202V36.7796C220.342 36.4866 219.405 35.1585 217.53 32.7952C214.385 28.7327 210.947 22.8343 207.217 15.0999C207.373 14.9437 208.389 14.6702 210.264 14.2796C209.873 13.5765 209.678 13.1077 209.678 12.8734C212.412 12.1702 214.639 11.8187 216.358 11.8187ZM210.967 13.6937C214.502 20.3929 217.08 24.9632 218.701 27.4046C222.041 31.7405 223.721 34.0062 223.74 34.2015V36.3109C223.74 39.3968 223.819 44.553 223.975 51.7796H232.881V48.4984C232.94 38.1273 233.369 32.6976 234.17 32.2093C236.533 28.5374 239.346 23.889 242.608 18.264C242.705 18.1663 243.604 16.8382 245.303 14.2796V14.1624C242.178 13.2249 238.545 12.7562 234.405 12.7562C233.311 15.0804 232.022 18.0101 230.537 21.5452C229.58 23.0491 228.877 24.0257 228.428 24.4749C226.065 21.6038 224.346 18.8304 223.272 16.1546C222.256 14.4359 221.67 13.3421 221.514 12.8734C220.225 12.7952 219.248 12.7562 218.584 12.7562H216.944C215.147 12.7562 213.155 13.0296 210.967 13.5765V13.6937ZM291.123 11.9359C295.108 12.053 297.1 12.2093 297.1 12.4046C296.944 16.1546 296.826 20.9593 296.748 26.8187C296.826 35.3538 296.865 43.6741 296.865 51.7796L296.631 51.8968H294.522V53.7718C294.522 53.928 294.444 54.0062 294.287 54.0062C293.662 54.0062 289.522 53.9671 281.865 53.889L281.748 53.6546V53.5374C281.748 48.8304 281.592 45.0023 281.28 42.053H279.17C279.326 46.9944 279.405 50.5491 279.405 52.7171L279.17 52.8343H276.944C277.022 53.9085 277.061 54.5726 277.061 54.8265L276.826 54.9437C268.467 54.7874 263.936 54.7093 263.233 54.7093C263.233 54.6312 263.194 54.5921 263.115 54.5921C263.037 52.1116 262.998 50.3538 262.998 49.3187C262.998 35.3538 262.569 24.6116 261.709 17.0921C261.631 15.9398 261.553 15.1585 261.475 14.7484L261.709 14.6312H264.053V14.0452L263.936 12.639C264.014 12.639 264.053 12.5999 264.053 12.5218C266.768 12.4437 268.721 12.4046 269.912 12.4046H277.881C278.252 12.4046 278.565 17.0921 278.819 26.4671V27.9905H281.162V27.8734C280.928 22.4046 280.811 18.928 280.811 17.4437V14.8655C280.811 14.7484 280.928 14.6312 281.162 14.514C281.572 14.514 282.237 14.4749 283.155 14.3968V12.7562C283.155 12.4046 285.811 12.1312 291.123 11.9359ZM284.209 13.3421V14.9827C284.209 16.2132 284.326 19.8851 284.561 25.9984V28.6937C284.561 28.8499 284.483 28.928 284.326 28.928C282.862 28.928 280.713 28.9671 277.881 29.0452L277.764 28.8109V25.0609C277.764 21.4085 277.569 17.5413 277.178 13.4593L276.006 13.3421H274.6C272.256 13.3421 269.053 13.3812 264.99 13.4593C265.928 22.0921 266.397 32.7171 266.397 45.3343V46.5062C266.397 47.346 266.436 49.0257 266.514 51.5452C266.924 51.6234 267.158 51.6624 267.217 51.6624C270.615 51.6624 274.365 51.7405 278.467 51.8968L278.115 39.0062L278.35 38.889H284.326C284.795 38.889 285.069 42.8734 285.147 50.8421H295.928C295.85 37.8148 295.811 29.7288 295.811 26.5843C295.811 23.928 295.889 19.4359 296.045 13.1077C294.365 13.0296 293.115 12.9905 292.295 12.9905H290.772C288.936 12.9905 286.748 13.1077 284.209 13.3421ZM299.912 12.7562H312.686C312.842 12.7757 312.92 12.8538 312.92 12.9905V15.3343C312.92 22.2874 313.076 31.389 313.389 42.639C313.389 43.7523 313.233 47.0726 312.92 52.5999L312.569 52.8343H310.576C310.576 54.2405 310.459 54.9437 310.225 54.9437H298.037C297.881 54.9437 297.803 54.8655 297.803 54.7093C297.803 41.6429 297.569 31.096 297.1 23.0687C297.1 22.3265 297.139 19.6312 297.217 14.9827L297.451 14.8655H299.678V12.9905C299.697 12.8343 299.776 12.7562 299.912 12.7562ZM300.615 13.6937C300.537 17.9515 300.498 20.4515 300.498 21.1937C300.967 28.5569 301.201 38.7913 301.201 51.8968H302.373C304.717 51.8968 307.92 51.8577 311.983 51.7796C312.295 46.3304 312.451 43.2054 312.451 42.4046C312.139 32.5999 311.944 23.0296 311.865 13.6937H300.615ZM316.084 14.1624H329.209L329.444 14.2796C329.522 20.3734 329.561 25.139 329.561 28.5765V42.5218H329.678C332.881 42.678 334.756 42.7562 335.303 42.7562H338.233C338.389 42.7757 338.467 42.8538 338.467 42.9905C338.389 46.9359 338.35 50.0218 338.35 52.2484V52.5999C338.35 52.7562 338.272 52.8343 338.115 52.8343H336.006V54.7093C336.006 54.8655 335.889 54.9437 335.655 54.9437C332.373 54.9437 325.303 54.7874 314.444 54.4749C314.365 54.3187 314.326 54.2015 314.326 54.1234C314.326 47.0335 314.014 34.4554 313.389 16.389L313.623 16.2718H315.85V14.3968C315.869 14.2405 315.947 14.1624 316.084 14.1624ZM316.787 15.2171C316.787 15.2952 316.826 15.4124 316.905 15.5687C316.905 16.9749 317.139 25.8812 317.608 42.2874C317.686 42.2874 317.725 45.3343 317.725 51.428H318.428L337.412 51.8968V43.6937L337.178 43.8109H336.358C335.947 43.8109 333.408 43.6937 328.74 43.4593C328.662 43.303 328.623 43.1859 328.623 43.1077C328.623 37.4632 328.584 28.1273 328.506 15.0999H327.334C324.795 15.0999 321.28 15.139 316.787 15.2171ZM341.162 14.1624H354.287L354.522 14.2796C354.6 20.3734 354.639 25.139 354.639 28.5765V42.5218H354.756C357.959 42.678 359.834 42.7562 360.381 42.7562H363.311C363.467 42.7757 363.545 42.8538 363.545 42.9905C363.467 46.9359 363.428 50.0218 363.428 52.2484V52.5999C363.428 52.7562 363.35 52.8343 363.194 52.8343H361.084V54.7093C361.084 54.8655 360.967 54.9437 360.733 54.9437C357.451 54.9437 350.381 54.7874 339.522 54.4749C339.444 54.3187 339.405 54.2015 339.405 54.1234C339.405 47.0335 339.092 34.4554 338.467 16.389L338.701 16.2718H340.928V14.3968C340.947 14.2405 341.026 14.1624 341.162 14.1624ZM341.865 15.2171C341.865 15.2952 341.905 15.4124 341.983 15.5687C341.983 16.9749 342.217 25.8812 342.686 42.2874C342.764 42.2874 342.803 45.3343 342.803 51.428H343.506L362.49 51.8968V43.6937L362.256 43.8109H361.436C361.026 43.8109 358.487 43.6937 353.819 43.4593C353.74 43.303 353.701 43.1859 353.701 43.1077C353.701 37.4632 353.662 28.1273 353.584 15.0999H352.412C349.873 15.0999 346.358 15.139 341.865 15.2171ZM405.03 12.2874C406.201 17.7757 407.608 23.7523 409.248 30.2171C410.03 33.8694 411.397 40.9007 413.35 51.3109C412.94 51.4671 412.041 51.5843 410.655 51.6624V51.7796C410.811 52.8148 410.889 53.3616 410.889 53.4202C408.916 53.8109 406.924 54.0062 404.912 54.0062H399.053C398.838 54.0062 398.526 51.5062 398.115 46.5062C397.803 43.6155 397.569 42.1702 397.412 42.1702H395.772C395.069 48.5374 394.639 52.0921 394.483 52.8343H392.373C392.373 54.2405 392.217 54.9437 391.905 54.9437H389.326C386.104 54.9437 382.393 54.7093 378.194 54.2405C380.225 45.4124 383.076 34.6312 386.748 21.8968C387.998 17.3069 388.701 14.8851 388.858 14.6312H390.615C390.772 13.928 390.967 13.2249 391.201 12.5218C398.272 12.3655 402.881 12.2874 405.03 12.2874ZM391.905 13.4593L384.17 41.5843C383.858 42.7171 383.076 45.9593 381.826 51.3109C384.444 51.6234 388.389 51.7796 393.662 51.7796C394.522 44.1624 395.03 39.9437 395.186 39.1234H400.694C400.947 39.1234 401.416 42.9905 402.1 50.7249C402.178 50.7249 402.217 50.803 402.217 50.9593H406.436C410.264 50.8616 412.178 50.6663 412.178 50.3734C409.756 36.8773 407.569 26.6429 405.615 19.6702C404.912 16.4476 404.483 14.2991 404.326 13.2249C402.354 13.303 398.213 13.3812 391.905 13.4593ZM397.881 23.7718C398.428 24.6898 399.092 26.4476 399.873 29.0452C400.186 30.2366 400.342 30.9788 400.342 31.2718L400.108 31.389H395.42L395.186 31.2718C396.26 26.2718 397.158 23.7718 397.881 23.7718ZM434.092 12.4046C437.471 12.4046 439.854 14.3577 441.24 18.264C441.553 19.2601 441.748 20.5882 441.826 22.2484C441.826 27.0726 439.912 30.8226 436.084 33.4984C433.565 35.8226 430.596 37.5804 427.178 38.7718V38.889L426.826 43.928C426.905 46.4476 426.944 48.8304 426.944 51.0765V52.2484C426.944 52.4632 426.162 52.6194 424.6 52.7171V54.3577C424.131 54.7484 422.608 54.9437 420.03 54.9437H417.686C415.655 54.9437 414.639 54.8265 414.639 54.5921C414.092 49.5726 413.701 45.0023 413.467 40.8812C413.565 33.6937 413.643 29.514 413.701 28.3421C413.623 27.5218 413.506 23.1859 413.35 15.3343C413.877 15.178 414.697 15.0999 415.811 15.0999V13.3421C415.811 12.9515 421.748 12.639 433.623 12.4046H434.092ZM416.748 14.0452C416.748 14.2601 416.865 18.2054 417.1 25.8812L416.865 38.5374C417.1 43.1077 417.49 47.5218 418.037 51.7796C419.717 51.8577 420.928 51.8968 421.67 51.8968C424.561 51.8382 426.006 51.6819 426.006 51.428C425.928 48.0491 425.889 45.6273 425.889 44.1624C426.143 39.0062 426.416 36.428 426.709 36.428C430.947 35.5296 434.815 33.4593 438.311 30.2171C439.951 28.0491 440.772 25.5491 440.772 22.7171V21.5452C440.772 17.7757 439.287 15.1976 436.319 13.8109C435.811 13.5765 434.99 13.4202 433.858 13.3421C429.834 13.3421 424.131 13.5765 416.748 14.0452ZM428.936 21.3109H429.873C431.826 21.3109 432.803 22.014 432.803 23.4202C432.803 25.1194 431.826 26.3304 429.873 27.053C428.916 27.4437 427.783 27.639 426.475 27.639H426.358C426.104 27.639 425.947 25.6468 425.889 21.6624C426.553 21.428 427.569 21.3109 428.936 21.3109ZM426.944 24.3577V24.4749C427.022 25.5296 427.061 26.2718 427.061 26.7015C428.623 26.5648 429.405 26.2523 429.405 25.764V25.6468C429.405 24.7874 428.74 24.3577 427.412 24.3577H426.944ZM462.569 12.4046C465.947 12.4046 468.33 14.3577 469.717 18.264C470.03 19.2601 470.225 20.5882 470.303 22.2484C470.303 27.0726 468.389 30.8226 464.561 33.4984C462.041 35.8226 459.072 37.5804 455.655 38.7718V38.889L455.303 43.928C455.381 46.4476 455.42 48.8304 455.42 51.0765V52.2484C455.42 52.4632 454.639 52.6194 453.076 52.7171V54.3577C452.608 54.7484 451.084 54.9437 448.506 54.9437H446.162C444.131 54.9437 443.115 54.8265 443.115 54.5921C442.569 49.5726 442.178 45.0023 441.944 40.8812C442.041 33.6937 442.119 29.514 442.178 28.3421C442.1 27.5218 441.983 23.1859 441.826 15.3343C442.354 15.178 443.174 15.0999 444.287 15.0999V13.3421C444.287 12.9515 450.225 12.639 462.1 12.4046H462.569ZM445.225 14.0452C445.225 14.2601 445.342 18.2054 445.576 25.8812L445.342 38.5374C445.576 43.1077 445.967 47.5218 446.514 51.7796C448.194 51.8577 449.405 51.8968 450.147 51.8968C453.037 51.8382 454.483 51.6819 454.483 51.428C454.405 48.0491 454.365 45.6273 454.365 44.1624C454.619 39.0062 454.893 36.428 455.186 36.428C459.424 35.5296 463.291 33.4593 466.787 30.2171C468.428 28.0491 469.248 25.5491 469.248 22.7171V21.5452C469.248 17.7757 467.764 15.1976 464.795 13.8109C464.287 13.5765 463.467 13.4202 462.334 13.3421C458.311 13.3421 452.608 13.5765 445.225 14.0452ZM457.412 21.3109H458.35C460.303 21.3109 461.28 22.014 461.28 23.4202C461.28 25.1194 460.303 26.3304 458.35 27.053C457.393 27.4437 456.26 27.639 454.951 27.639H454.834C454.58 27.639 454.424 25.6468 454.365 21.6624C455.03 21.428 456.045 21.3109 457.412 21.3109ZM455.42 24.3577V24.4749C455.498 25.5296 455.537 26.2718 455.537 26.7015C457.1 26.5648 457.881 26.2523 457.881 25.764V25.6468C457.881 24.7874 457.217 24.3577 455.889 24.3577H455.42ZM486.709 12.053H487.295C492.1 12.053 495.108 13.0687 496.319 15.0999C497.959 17.1312 498.78 19.9437 498.78 23.5374C498.78 27.4046 497.061 30.4515 493.623 32.678C493.174 33.2444 492.393 33.9476 491.28 34.7874C494.346 36.8382 496.299 38.9476 497.139 41.1155C498.155 43.3616 498.662 45.3538 498.662 47.0921C498.662 47.7757 498.545 49.5726 498.311 52.4827H498.194C497.588 52.4827 496.885 52.4046 496.084 52.2484C496.006 53.7718 495.889 54.5921 495.733 54.7093C491.885 54.2991 488.877 53.8304 486.709 53.303V53.1859C486.709 47.8734 486.006 44.7484 484.6 43.8109L484.248 43.5765L484.131 43.8109C484.131 44.4749 484.092 45.5296 484.014 46.9749C484.17 49.9632 484.248 51.6038 484.248 51.8968C483.643 52.1312 482.822 52.3655 481.787 52.5999V52.7171L481.905 53.889C480.342 54.5921 478.78 54.9437 477.217 54.9437C473.467 54.6312 471.592 54.3577 471.592 54.1234C471.436 47.5804 471.358 41.4476 471.358 35.7249V32.4437C471.358 25.9202 471.006 20.0999 470.303 14.9827C470.967 14.846 471.826 14.7288 472.881 14.6312L472.764 12.7562H472.881C478.213 12.2874 482.822 12.053 486.709 12.053ZM473.819 13.6937C474.444 18.4398 474.756 23.8304 474.756 29.8655V33.0296C474.756 39.1624 474.834 45.2562 474.99 51.3109C476.944 51.6234 478.584 51.7796 479.912 51.7796C480.889 51.7796 482.022 51.5843 483.311 51.1937C483.311 51.1155 483.272 50.9984 483.194 50.8421C483.115 48.8499 483.076 47.5218 483.076 46.8577C483.076 44.7484 483.272 41.8968 483.662 38.303C487.725 40.178 489.756 42.7562 489.756 46.0374C489.99 48.5765 490.147 50.0609 490.225 50.4905C491.455 50.803 493.838 51.1155 497.373 51.428C497.53 50.1585 497.647 48.6741 497.725 46.9749C497.725 44.9241 496.865 42.4241 495.147 39.4749C492.822 37.014 490.635 35.2562 488.584 34.2015V33.9671C492.862 32.4632 495.713 30.3148 497.139 27.5218C497.608 26.2132 497.842 24.8069 497.842 23.303C497.842 18.5179 496.162 15.2757 492.803 13.5765C491.104 13.1859 489.072 12.9905 486.709 12.9905C483.155 12.9905 478.858 13.2249 473.819 13.6937ZM487.061 20.7249H487.178C489.131 20.7249 490.108 21.5452 490.108 23.1859C490.108 25.1194 488.936 26.4866 486.592 27.2874C485.615 27.5999 484.561 27.7562 483.428 27.7562C483.291 27.7562 483.135 25.6468 482.959 21.428C484.365 20.9593 485.733 20.7249 487.061 20.7249ZM484.131 23.7718C484.131 23.8499 484.092 23.889 484.014 23.889L484.248 26.7015C485.811 26.7015 486.592 26.389 486.592 25.764C486.67 25.6468 486.709 25.4124 486.709 25.0609C486.709 24.2015 485.85 23.7718 484.131 23.7718ZM501.475 11.4671C518.115 12.1116 526.436 12.5023 526.436 12.639C526.905 19.1038 527.178 23.2054 527.256 24.9437C527.1 25.0218 526.983 25.0609 526.905 25.0609C526.592 25.0609 525.889 25.0999 524.795 25.178V25.6468L524.912 27.053C524.834 27.053 524.795 27.0921 524.795 27.1702C518.994 27.4046 515.401 27.5218 514.014 27.5218V27.8734C514.014 28.264 514.053 28.8499 514.131 29.6312C519.776 30.0218 522.94 30.2952 523.623 30.4515V30.5687C523.487 34.1624 523.291 35.9593 523.037 35.9593H521.865C521.24 35.9593 520.928 36.1937 520.928 36.6624V37.7171L520.694 38.0687C519.014 38.1468 517.764 38.1859 516.944 38.1859H514.951C515.186 40.2952 515.381 41.3499 515.537 41.3499C523.272 42.053 527.569 42.4827 528.428 42.639V42.7562C528.037 49.4749 527.725 52.8343 527.49 52.8343H525.498L525.381 53.6546V54.5921C525.381 54.7093 525.264 54.8265 525.03 54.9437H522.451C519.522 54.9437 511.67 54.4749 498.897 53.5374L498.78 53.303V13.8109C498.799 13.6546 498.877 13.5765 499.014 13.5765H500.655L501.24 13.6937V11.7015C501.26 11.5452 501.338 11.4671 501.475 11.4671ZM502.178 12.4046V50.4905C514.483 51.428 522.569 51.8968 526.436 51.8968H526.787C527.1 48.8109 527.256 45.9984 527.256 43.4593C519.658 42.7562 515.401 42.3265 514.483 42.1702C514.014 38.3226 513.701 36.0569 513.545 35.3734C513.623 35.3734 513.662 35.3343 513.662 35.2562L522.334 35.0218C522.412 34.7484 522.451 33.4984 522.451 31.2718C517.1 30.8812 514.014 30.6077 513.194 30.4515C512.959 27.2484 512.842 25.3343 512.842 24.7093C512.92 24.7093 512.959 24.6702 512.959 24.5921L526.319 24.1234L526.201 23.889C526.201 23.1273 525.967 19.6507 525.498 13.4593C511.416 12.8343 503.838 12.5218 502.764 12.5218L502.178 12.4046ZM548.701 11.3499H549.873C554.092 11.3499 557.764 13.264 560.889 17.0921V17.2093C560.283 21.1351 558.682 24.7679 556.084 28.1077L555.498 27.7562L553.623 30.2171C551.377 28.7327 549.424 27.9905 547.764 27.9905H547.295C545.127 27.9905 543.838 29.0843 543.428 31.2718C543.213 31.5257 543.096 32.2679 543.076 33.4984C543.076 36.8187 543.936 39.0062 545.655 40.0609C546.826 40.6077 548.037 40.8812 549.287 40.8812H549.522C551.319 40.8812 553.233 40.3343 555.264 39.2405C556.67 40.0413 557.92 42.2679 559.014 45.9202C559.561 47.8929 559.834 49.6507 559.834 51.1937C558.799 51.5062 557.979 51.7015 557.373 51.7796V51.8968L557.49 53.303C553.35 54.3968 549.444 54.9437 545.772 54.9437C538.369 54.9437 533.408 51.7405 530.889 45.3343C529.248 41.3694 528.428 38.0491 528.428 35.3734V34.3187C528.428 28.6351 530.342 23.4788 534.17 18.8499C538.662 14.6702 541.865 12.4827 543.78 12.2874C545.459 11.6624 547.1 11.3499 548.701 11.3499ZM531.826 32.3265V32.9124C531.826 36.7991 533.155 41.1351 535.811 45.9202C538.311 49.8265 542.139 51.7796 547.295 51.7796H549.287C551.885 51.7796 555.088 51.3499 558.897 50.4905C558.799 48.1859 557.94 45.2562 556.319 41.7015L555.264 40.4124C552.842 41.428 550.85 41.9359 549.287 41.9359C545.85 41.9359 543.623 40.4124 542.608 37.3655C542.295 36.428 542.139 35.3734 542.139 34.2015V33.1468C542.139 29.4749 544.092 26.8187 547.998 25.178C548.623 25.0218 549.248 24.9046 549.873 24.8265C551.592 24.8265 553.584 25.4905 555.85 26.8187C558.076 23.7523 559.405 20.5491 559.834 17.2093C556.905 13.928 553.35 12.2874 549.17 12.2874C543.936 12.2874 539.522 14.553 535.928 19.0843C533.194 23.2835 531.826 27.6976 531.826 32.3265ZM563.701 12.7562H576.475C576.631 12.7757 576.709 12.8538 576.709 12.9905V15.3343C576.709 22.2874 576.865 31.389 577.178 42.639C577.178 43.7523 577.022 47.0726 576.709 52.5999L576.358 52.8343H574.365C574.365 54.2405 574.248 54.9437 574.014 54.9437H561.826C561.67 54.9437 561.592 54.8655 561.592 54.7093C561.592 41.6429 561.358 31.096 560.889 23.0687C560.889 22.3265 560.928 19.6312 561.006 14.9827L561.24 14.8655H563.467V12.9905C563.487 12.8343 563.565 12.7562 563.701 12.7562ZM564.405 13.6937C564.326 17.9515 564.287 20.4515 564.287 21.1937C564.756 28.5569 564.99 38.7913 564.99 51.8968H566.162C568.506 51.8968 571.709 51.8577 575.772 51.7796C576.084 46.3304 576.24 43.2054 576.24 42.4046C575.928 32.5999 575.733 23.0296 575.655 13.6937H564.405ZM604.014 12.2874C605.186 17.7757 606.592 23.7523 608.233 30.2171C609.014 33.8694 610.381 40.9007 612.334 51.3109C611.924 51.4671 611.026 51.5843 609.639 51.6624V51.7796C609.795 52.8148 609.873 53.3616 609.873 53.4202C607.901 53.8109 605.908 54.0062 603.897 54.0062H598.037C597.823 54.0062 597.51 51.5062 597.1 46.5062C596.787 43.6155 596.553 42.1702 596.397 42.1702H594.756C594.053 48.5374 593.623 52.0921 593.467 52.8343H591.358C591.358 54.2405 591.201 54.9437 590.889 54.9437H588.311C585.088 54.9437 581.377 54.7093 577.178 54.2405C579.209 45.4124 582.061 34.6312 585.733 21.8968C586.983 17.3069 587.686 14.8851 587.842 14.6312H589.6C589.756 13.928 589.951 13.2249 590.186 12.5218C597.256 12.3655 601.865 12.2874 604.014 12.2874ZM590.889 13.4593L583.155 41.5843C582.842 42.7171 582.061 45.9593 580.811 51.3109C583.428 51.6234 587.373 51.7796 592.647 51.7796C593.506 44.1624 594.014 39.9437 594.17 39.1234H599.678C599.932 39.1234 600.401 42.9905 601.084 50.7249C601.162 50.7249 601.201 50.803 601.201 50.9593H605.42C609.248 50.8616 611.162 50.6663 611.162 50.3734C608.74 36.8773 606.553 26.6429 604.6 19.6702C603.897 16.4476 603.467 14.2991 603.311 13.2249C601.338 13.303 597.198 13.3812 590.889 13.4593ZM596.865 23.7718C597.412 24.6898 598.076 26.4476 598.858 29.0452C599.17 30.2366 599.326 30.9788 599.326 31.2718L599.092 31.389H594.405L594.17 31.2718C595.244 26.2718 596.143 23.7718 596.865 23.7718ZM615.03 11.4671C616.865 11.4671 627.725 11.6624 647.608 12.053C647.608 12.1312 647.647 12.1702 647.725 12.1702C647.959 19.1429 648.076 23.3226 648.076 24.7093C646.436 24.9046 645.615 25.0218 645.615 25.0609C645.694 26.0374 645.733 26.6234 645.733 26.8187C645.303 26.9749 642.608 27.1312 637.647 27.2874L638.233 52.7171L637.998 52.8343H637.764C637.354 52.8343 636.69 52.7952 635.772 52.7171V52.8343C635.772 53.0882 635.811 53.7523 635.889 54.8265L635.655 54.9437C629.014 54.6507 625.694 54.3773 625.694 54.1234L623.467 27.5218C623.155 27.3851 619.483 27.0726 612.451 26.5843L612.334 26.3499V13.8109C612.354 13.6546 612.432 13.5765 612.569 13.5765H614.795V11.7015C614.815 11.5452 614.893 11.4671 615.03 11.4671ZM615.733 12.4046V23.5374C622.334 24.0062 626.006 24.3187 626.748 24.4749C628.155 40.8616 628.936 49.8069 629.092 51.3109C633.448 51.6234 636.182 51.7796 637.295 51.7796V51.6624C637.217 50.8812 636.983 41.8187 636.592 24.4749C637.217 24.3187 640.733 24.1234 647.139 23.889C647.061 22.7757 646.944 19.1429 646.787 12.9905C628.389 12.678 618.037 12.4827 615.733 12.4046ZM650.889 12.7562H663.662C663.819 12.7757 663.897 12.8538 663.897 12.9905V15.3343C663.897 22.2874 664.053 31.389 664.365 42.639C664.365 43.7523 664.209 47.0726 663.897 52.5999L663.545 52.8343H661.553C661.553 54.2405 661.436 54.9437 661.201 54.9437H649.014C648.858 54.9437 648.78 54.8655 648.78 54.7093C648.78 41.6429 648.545 31.096 648.076 23.0687C648.076 22.3265 648.115 19.6312 648.194 14.9827L648.428 14.8655H650.655V12.9905C650.674 12.8343 650.752 12.7562 650.889 12.7562ZM651.592 13.6937C651.514 17.9515 651.475 20.4515 651.475 21.1937C651.944 28.5569 652.178 38.7913 652.178 51.8968H653.35C655.694 51.8968 658.897 51.8577 662.959 51.7796C663.272 46.3304 663.428 43.2054 663.428 42.4046C663.115 32.5999 662.92 23.0296 662.842 13.6937H651.592ZM687.217 12.1702H687.803C696.26 12.1702 701.963 15.5296 704.912 22.2484C705.85 24.6702 706.319 27.2874 706.319 30.0999V31.0374C706.319 39.3968 703.311 45.764 697.295 50.139C693.74 53.3421 689.678 54.9437 685.108 54.9437H683.584C678.096 54.9437 673.057 52.5999 668.467 47.9124C665.733 44.6116 664.365 41.0179 664.365 37.1312V37.014C664.365 27.7171 667.178 21.1546 672.803 17.3265C676.299 13.889 681.104 12.1702 687.217 12.1702ZM667.764 35.139C667.764 41.5257 671.397 46.5648 678.662 50.2562C681.436 51.3499 684.092 51.8968 686.631 51.8968H686.748C694.619 51.8968 700.244 48.1859 703.623 40.764C704.795 37.4827 705.381 34.0062 705.381 30.3343C705.381 21.4671 701.397 15.9593 693.428 13.8109C691.514 13.3421 689.561 13.1077 687.569 13.1077C677.588 13.1077 671.338 17.4437 668.819 26.1155C668.115 28.6937 667.764 31.7015 667.764 35.139ZM687.451 24.8265H687.686C692.276 24.8265 695.127 27.0921 696.24 31.6234C696.319 32.2874 696.358 32.8343 696.358 33.264V33.7327C696.358 38.0882 693.975 41.096 689.209 42.7562C688.545 42.8343 687.998 42.8734 687.569 42.8734C684.834 42.8734 682.373 40.803 680.186 36.6624C679.873 35.5296 679.717 34.6702 679.717 34.0843V33.8499C679.717 30.3343 681.319 27.5609 684.522 25.5296C685.518 25.0609 686.494 24.8265 687.451 24.8265ZM680.655 33.9671C680.655 36.721 682.334 39.221 685.694 41.4671C686.651 41.7796 687.354 41.9359 687.803 41.9359C690.225 41.9359 691.787 40.803 692.49 38.5374C692.803 37.6585 692.959 36.721 692.959 35.7249C692.959 32.2288 691.553 29.846 688.74 28.5765C687.51 28.1077 686.299 27.8734 685.108 27.8734C683.194 27.8734 682.022 28.6546 681.592 30.2171C680.967 31.4085 680.655 32.6585 680.655 33.9671ZM709.717 12.8734H716.28C716.475 12.9319 718.819 16.2913 723.311 22.9515V15.6859C723.33 15.5296 723.408 15.4515 723.545 15.4515H725.772V13.5765C725.791 13.4202 725.869 13.3421 726.006 13.3421C731.045 13.264 735.108 13.2249 738.194 13.2249C738.35 13.2444 738.428 13.3226 738.428 13.4593C737.412 29.0843 736.475 42.053 735.615 52.3655L735.264 52.5999H733.272C733.272 54.0062 733.155 54.7093 732.92 54.7093C729.19 54.6312 727.002 54.5921 726.358 54.5921C723.311 50.139 721.24 47.2484 720.147 45.9202V52.5999C720.147 52.7562 720.069 52.8343 719.912 52.8343H717.803V54.7093C717.803 54.8655 717.725 54.9437 717.569 54.9437H712.998C708.545 54.9437 706.319 54.7484 706.319 54.3577C706.944 45.5687 707.256 38.5374 707.256 33.264V27.9905C707.256 24.8069 707.217 20.5101 707.139 15.0999L707.373 14.9827H709.6C709.522 14.0648 709.483 13.4007 709.483 12.9905L709.717 12.8734ZM710.537 13.928C710.615 17.9124 710.655 21.0374 710.655 23.303V31.8577C710.655 36.0179 710.381 42.5023 709.834 51.3109C709.756 51.4671 709.717 51.5843 709.717 51.6624C712.53 51.8187 715.694 51.8968 719.209 51.8968V38.0687C719.229 37.9124 719.307 37.8343 719.444 37.8343C722.92 42.4827 726.201 47.014 729.287 51.428C729.815 51.5062 730.244 51.5452 730.576 51.5452H732.334C732.842 51.5452 733.623 51.5843 734.678 51.6624C736.475 28.7327 737.373 16.2718 737.373 14.2796H726.709V29.514H726.592L715.928 13.928H710.537ZM763.506 12.2874H770.655C773.819 12.2874 775.967 12.9124 777.1 14.1624C780.069 16.6624 781.553 20.4124 781.553 25.4124V26.2327C781.553 29.7679 780.264 32.2679 777.686 33.7327L776.748 34.9046V35.0218C778.916 36.1937 780.557 38.3812 781.67 41.5843C781.826 42.2093 781.905 42.8734 781.905 43.5765V43.8109C781.905 47.5609 780.537 50.2171 777.803 51.7796C776.065 53.889 773.526 54.9437 770.186 54.9437C760.694 54.9437 755.108 54.5921 753.428 53.889C753.35 51.1937 753.311 49.7874 753.311 49.6702C753.311 42.5218 753.233 30.8421 753.076 14.6312L753.311 14.514H755.537V12.639L755.655 12.4046C759.073 12.3265 761.69 12.2874 763.506 12.2874ZM756.475 13.3421V13.4593C756.631 26.6038 756.709 37.6194 756.709 46.5062C756.787 48.889 756.826 50.4124 756.826 51.0765C756.826 51.389 762.022 51.6624 772.412 51.8968C776.065 51.8968 778.643 50.6077 780.147 48.0296C780.694 46.3499 780.967 44.8655 780.967 43.5765C780.967 40.9788 779.6 38.5179 776.865 36.1937C776.045 35.5687 774.561 35.0999 772.412 34.7874C772.412 34.4359 772.373 34.2015 772.295 34.0843L776.983 32.9124C779.405 31.9359 780.615 29.4749 780.615 25.5296C780.615 19.5921 778.545 15.6468 774.405 13.6937C774.112 13.3812 772.237 13.2249 768.78 13.2249C767.998 13.2249 763.897 13.264 756.475 13.3421ZM769.6 20.8421C771.084 21.3304 771.826 22.3069 771.826 23.7718V24.2405C771.826 26.1546 770.342 27.4827 767.373 28.2249C766.69 28.303 766.104 28.3421 765.615 28.3421H765.264C765.108 28.3421 765.03 28.264 765.03 28.1077V21.428C765.03 21.1741 766.553 20.9788 769.6 20.8421ZM765.967 24.0062V27.4046C767.608 27.4046 768.428 27.053 768.428 26.3499V25.8812C768.213 24.553 767.666 23.889 766.787 23.889L765.967 24.0062ZM767.959 41.1155C770.01 41.1155 771.338 41.6624 771.944 42.7562C772.1 43.0491 772.178 43.3616 772.178 43.6937V44.0452C772.178 45.5296 771.006 46.5452 768.662 47.0921C767.94 47.3265 767.041 47.4437 765.967 47.4437H765.03C764.873 47.4437 764.795 47.3655 764.795 47.2093V46.389C764.795 45.178 764.834 43.5374 764.912 41.4671C765.655 41.2327 766.67 41.1155 767.959 41.1155ZM765.85 44.2796V46.5062C766.299 46.5062 767.276 46.389 768.78 46.1546V45.803C768.565 44.7874 767.705 44.2796 766.201 44.2796H765.85ZM784.6 14.1624H797.725L797.959 14.2796C798.037 20.3734 798.076 25.139 798.076 28.5765V42.5218H798.194C801.397 42.678 803.272 42.7562 803.819 42.7562H806.748C806.905 42.7757 806.983 42.8538 806.983 42.9905C806.905 46.9359 806.865 50.0218 806.865 52.2484V52.5999C806.865 52.7562 806.787 52.8343 806.631 52.8343H804.522V54.7093C804.522 54.8655 804.405 54.9437 804.17 54.9437C800.889 54.9437 793.819 54.7874 782.959 54.4749C782.881 54.3187 782.842 54.2015 782.842 54.1234C782.842 47.0335 782.53 34.4554 781.905 16.389L782.139 16.2718H784.365V14.3968C784.385 14.2405 784.463 14.1624 784.6 14.1624ZM785.303 15.2171C785.303 15.2952 785.342 15.4124 785.42 15.5687C785.42 16.9749 785.655 25.8812 786.123 42.2874C786.201 42.2874 786.24 45.3343 786.24 51.428H786.944L805.928 51.8968V43.6937L805.694 43.8109H804.873C804.463 43.8109 801.924 43.6937 797.256 43.4593C797.178 43.303 797.139 43.1859 797.139 43.1077C797.139 37.4632 797.1 28.1273 797.022 15.0999H795.85C793.311 15.0999 789.795 15.139 785.303 15.2171ZM829.834 12.1702H830.42C838.877 12.1702 844.58 15.5296 847.53 22.2484C848.467 24.6702 848.936 27.2874 848.936 30.0999V31.0374C848.936 39.3968 845.928 45.764 839.912 50.139C836.358 53.3421 832.295 54.9437 827.725 54.9437H826.201C820.713 54.9437 815.674 52.5999 811.084 47.9124C808.35 44.6116 806.983 41.0179 806.983 37.1312V37.014C806.983 27.7171 809.795 21.1546 815.42 17.3265C818.916 13.889 823.721 12.1702 829.834 12.1702ZM810.381 35.139C810.381 41.5257 814.014 46.5648 821.28 50.2562C824.053 51.3499 826.709 51.8968 829.248 51.8968H829.365C837.237 51.8968 842.862 48.1859 846.24 40.764C847.412 37.4827 847.998 34.0062 847.998 30.3343C847.998 21.4671 844.014 15.9593 836.045 13.8109C834.131 13.3421 832.178 13.1077 830.186 13.1077C820.205 13.1077 813.955 17.4437 811.436 26.1155C810.733 28.6937 810.381 31.7015 810.381 35.139ZM830.069 24.8265H830.303C834.893 24.8265 837.744 27.0921 838.858 31.6234C838.936 32.2874 838.975 32.8343 838.975 33.264V33.7327C838.975 38.0882 836.592 41.096 831.826 42.7562C831.162 42.8343 830.615 42.8734 830.186 42.8734C827.451 42.8734 824.99 40.803 822.803 36.6624C822.49 35.5296 822.334 34.6702 822.334 34.0843V33.8499C822.334 30.3343 823.936 27.5609 827.139 25.5296C828.135 25.0609 829.112 24.8265 830.069 24.8265ZM823.272 33.9671C823.272 36.721 824.951 39.221 828.311 41.4671C829.268 41.7796 829.971 41.9359 830.42 41.9359C832.842 41.9359 834.405 40.803 835.108 38.5374C835.42 37.6585 835.576 36.721 835.576 35.7249C835.576 32.2288 834.17 29.846 831.358 28.5765C830.127 28.1077 828.916 27.8734 827.725 27.8734C825.811 27.8734 824.639 28.6546 824.209 30.2171C823.584 31.4085 823.272 32.6585 823.272 33.9671ZM869.444 10.764H870.147C874.619 10.764 878.448 12.7171 881.631 16.6234C880.303 21.2718 878.506 24.8265 876.24 27.2874C875.987 27.1312 875.752 27.053 875.537 27.053C875.498 27.4437 874.912 28.2249 873.78 29.3968C871.494 28.0687 869.502 27.4046 867.803 27.4046C865.772 27.4046 864.639 28.1077 864.405 29.514C863.858 30.3148 863.584 31.4476 863.584 32.9124V33.0296C863.584 36.1155 864.795 38.6937 867.217 40.764C867.862 41.2327 868.565 41.4671 869.326 41.4671C869.365 41.4671 869.522 41.428 869.795 41.3499V41.1155C867.608 40.5882 866.514 40.0804 866.514 39.5921C866.436 37.6194 866.397 36.0569 866.397 34.9046C866.455 33.4984 866.612 32.7952 866.865 32.7952H868.623C868.76 32.7952 868.916 32.1312 869.092 30.803L869.326 30.6859H884.561C884.873 30.6859 885.03 32.4046 885.03 35.8421V39.5921C885.03 39.7484 884.951 39.8265 884.795 39.8265H884.561C884.151 39.8265 883.487 39.7874 882.569 39.7093V41.7015C882.569 41.8577 882.451 41.9359 882.217 41.9359C881.865 41.9359 881.006 41.8968 879.639 41.8187C879.209 44.4749 878.389 46.5062 877.178 47.9124C873.076 51.7796 870.186 53.928 868.506 54.3577C867.198 54.7484 866.065 54.9437 865.108 54.9437H864.639C860.342 54.9437 856.397 52.4046 852.803 47.3265C850.225 42.678 848.936 38.3812 848.936 34.4359C848.936 28.3812 850.85 22.9905 854.678 18.264C858.721 14.4554 861.729 12.3069 863.701 11.8187C865.713 11.1155 867.627 10.764 869.444 10.764ZM852.334 32.5609C852.334 37.053 854.053 41.7405 857.49 46.6234C860.537 50.139 863.858 51.8968 867.451 51.8968C870.615 51.8968 873.819 50.0999 877.061 46.5062C878.233 44.4163 878.819 41.9944 878.819 39.2405V38.7718C878.838 38.6155 878.916 38.5374 879.053 38.5374C880.088 38.6155 881.729 38.6546 883.975 38.6546C884.053 38.2249 884.092 37.8734 884.092 37.5999V36.8968C884.092 34.7093 884.014 32.9905 883.858 31.7405C878.506 31.6624 874.326 31.6234 871.319 31.6234H869.912L869.795 32.4437V32.9124C869.795 33.8304 869.834 35.2757 869.912 37.2484C872.1 37.9515 873.35 38.3812 873.662 38.5374C872.256 41.1155 870.811 42.4046 869.326 42.4046H869.209C866.162 42.4046 863.975 39.7093 862.647 34.3187V32.3265C862.647 30.0609 863.701 27.9124 865.811 25.8812C867.022 24.8655 868.506 24.3577 870.264 24.3577C871.807 24.3577 873.76 24.9046 876.123 25.9984C877.901 23.5569 879.229 20.9788 880.108 18.264C880.342 17.4046 880.459 16.9359 880.459 16.8577C877.764 13.4202 874.17 11.7015 869.678 11.7015C864.112 11.7015 859.541 14.2015 855.967 19.2015C853.545 23.5179 852.334 27.971 852.334 32.5609Z" fill="black"/>
</svg>
