<svg width="551" height="141" viewBox="0 0 551 141" fill="none" xmlns="http://www.w3.org/2000/svg">
<path d="M123.164 8.75C124.414 14.6042 125.914 20.9792 127.664 27.875C128.497 31.7708 129.955 39.2708 132.039 50.375C129.851 50.7917 127.685 51 125.539 51H119.414C119.143 51 118.643 46.875 117.914 38.625C117.83 38.625 117.789 38.5417 117.789 38.375H113.539C112.622 46.7083 112.08 51.25 111.914 52H109.164C105.705 52 101.705 51.75 97.1638 51.25C99.4138 41.25 102.58 29.3333 106.664 15.5C106.664 15.2917 107.247 13.125 108.414 9C115.955 8.83333 120.872 8.75 123.164 8.75ZM115.164 23.125C114.83 24.7917 114.414 26.4583 113.914 28.125H116.914V28C116.914 27.6042 116.414 25.9792 115.414 23.125H115.164ZM158.789 8.75H166.414C169.789 8.75 172.08 9.41667 173.289 10.75C176.455 13.4167 178.039 17.4167 178.039 22.75V23.625C178.039 27.7292 176.497 30.4375 173.414 31.75C172.393 32.0833 171.768 32.25 171.539 32.25V32.375C172.955 32.6667 174.539 33.9167 176.289 36.125C177.705 38.0833 178.414 40.0833 178.414 42.125V42.375C178.414 46.7083 176.83 49.5417 173.664 50.875C171.872 51.625 170.164 52 168.539 52C156.539 52 150.539 51.5417 150.539 50.625C150.539 46.4375 150.455 32.5625 150.289 9C150.372 9 150.414 8.95833 150.414 8.875C154.06 8.79167 156.851 8.75 158.789 8.75ZM161.414 19.25V24.875C163.768 24.875 165.435 24.0417 166.414 22.375C166.58 21.7917 166.664 21.3333 166.664 21C166.664 20.0417 166.164 19.3333 165.164 18.875C163.976 18.9583 162.726 19.0833 161.414 19.25ZM162.164 40.625H161.539C161.372 40.6458 161.289 40.7292 161.289 40.875V42.125C161.289 42.8333 161.247 43.875 161.164 45.25H161.289C163.955 45.25 165.83 44.5833 166.914 43.25C166.997 42.7917 167.039 42.4583 167.039 42.25C167.039 41.2083 165.83 40.625 163.414 40.5C162.976 40.5833 162.56 40.625 162.164 40.625ZM202.789 8.625H203.414C212.435 8.625 218.518 12.2083 221.664 19.375C222.664 21.9583 223.164 24.75 223.164 27.75V28.75C223.164 39.2292 219.039 46.4375 210.789 50.375C208.101 51.4583 205.518 52 203.039 52H201.539C195.226 52 189.56 49.1667 184.539 43.5C182.205 40.1458 181.039 36.7292 181.039 33.25V31.625C181.039 21.0208 185.122 13.8958 193.289 10.25C196.351 9.16667 199.518 8.625 202.789 8.625ZM195.789 31.875C195.789 34.8125 197.58 37.4792 201.164 39.875C202.185 40.2083 202.935 40.375 203.414 40.375C206.143 40.375 208.518 38.7917 210.539 35.625C211.205 34.2917 211.539 32.8333 211.539 31.25C211.539 27.5625 209.83 25.0208 206.414 23.625C205.101 23.2917 204.018 23.125 203.164 23.125C199.81 23.125 197.435 25.375 196.039 29.875C195.872 30.8333 195.789 31.5 195.789 31.875ZM234.289 8.75H241.914C245.289 8.75 247.58 9.41667 248.789 10.75C251.955 13.4167 253.539 17.4167 253.539 22.75V23.625C253.539 27.7292 251.997 30.4375 248.914 31.75C247.893 32.0833 247.268 32.25 247.039 32.25V32.375C248.455 32.6667 250.039 33.9167 251.789 36.125C253.205 38.0833 253.914 40.0833 253.914 42.125V42.375C253.914 46.7083 252.33 49.5417 249.164 50.875C247.372 51.625 245.664 52 244.039 52C232.039 52 226.039 51.5417 226.039 50.625C226.039 46.4375 225.955 32.5625 225.789 9C225.872 9 225.914 8.95833 225.914 8.875C229.56 8.79167 232.351 8.75 234.289 8.75ZM236.914 19.25V24.875C239.268 24.875 240.935 24.0417 241.914 22.375C242.08 21.7917 242.164 21.3333 242.164 21C242.164 20.0417 241.664 19.3333 240.664 18.875C239.476 18.9583 238.226 19.0833 236.914 19.25ZM237.664 40.625H237.039C236.872 40.6458 236.789 40.7292 236.789 40.875V42.125C236.789 42.8333 236.747 43.875 236.664 45.25H236.789C239.455 45.25 241.33 44.5833 242.414 43.25C242.497 42.7917 242.539 42.4583 242.539 42.25C242.539 41.2083 241.33 40.625 238.914 40.5C238.476 40.5833 238.06 40.625 237.664 40.625ZM265.039 8.75H272.664C276.039 8.75 278.33 9.41667 279.539 10.75C282.705 13.4167 284.289 17.4167 284.289 22.75V23.625C284.289 27.7292 282.747 30.4375 279.664 31.75C278.643 32.0833 278.018 32.25 277.789 32.25V32.375C279.205 32.6667 280.789 33.9167 282.539 36.125C283.955 38.0833 284.664 40.0833 284.664 42.125V42.375C284.664 46.7083 283.08 49.5417 279.914 50.875C278.122 51.625 276.414 52 274.789 52C262.789 52 256.789 51.5417 256.789 50.625C256.789 46.4375 256.705 32.5625 256.539 9C256.622 9 256.664 8.95833 256.664 8.875C260.31 8.79167 263.101 8.75 265.039 8.75ZM267.664 19.25V24.875C270.018 24.875 271.685 24.0417 272.664 22.375C272.83 21.7917 272.914 21.3333 272.914 21C272.914 20.0417 272.414 19.3333 271.414 18.875C270.226 18.9583 268.976 19.0833 267.664 19.25ZM268.414 40.625H267.789C267.622 40.6458 267.539 40.7292 267.539 40.875V42.125C267.539 42.8333 267.497 43.875 267.414 45.25H267.539C270.205 45.25 272.08 44.5833 273.164 43.25C273.247 42.7917 273.289 42.4583 273.289 42.25C273.289 41.2083 272.08 40.625 269.664 40.5C269.226 40.5833 268.81 40.625 268.414 40.625ZM294.414 8.25H298.289C300.039 8.25 300.914 8.54167 300.914 9.125C303.851 15.0208 305.976 18.6875 307.289 20.125C308.476 18.4792 310.268 14.6875 312.664 8.75L313.164 8.25H314.789C319.226 8.25 323.268 8.91667 326.914 10.25C323.268 15.6458 319.976 21.0208 317.039 26.375C314.872 29.5 313.789 31.375 313.789 32C313.289 35.5208 313.039 42.1458 313.039 51.875C312.955 51.875 312.914 51.9167 312.914 52C312.08 51.9167 311.455 51.875 311.039 51.875H301.789L301.539 51.75C301.539 50.6042 301.414 45.6875 301.164 37C301.247 34.7083 301.289 33.125 301.289 32.25C296.289 25.9167 293.205 21.375 292.039 18.625C289.601 14.2917 288.018 11.2083 287.289 9.375C290.205 8.625 292.58 8.25 294.414 8.25ZM374.164 8.375C378.414 8.5 380.539 8.66667 380.539 8.875C380.372 12.875 380.247 18 380.164 24.25C380.247 33.3542 380.289 42.2292 380.289 50.875L380.039 51C374.56 50.9167 370.435 50.875 367.664 50.875H366.914C366.747 50.875 366.664 50.7917 366.664 50.625V45.75C366.664 43.6875 366.539 41.1875 366.289 38.25H361.414C361.58 46.7708 361.664 51.3125 361.664 51.875L361.414 52C353.414 51.8333 348.58 51.75 346.914 51.75C346.83 51.5833 346.789 51.4583 346.789 51.375C346.789 32.1875 346.33 19.1458 345.414 12.25C345.414 11.9167 345.33 10.875 345.164 9.125C345.247 9.125 345.289 9.08333 345.289 9C348.185 8.91667 350.268 8.875 351.539 8.875H360.039C360.435 8.875 360.768 13.875 361.039 23.875V25.5H366.164V25.375L365.664 9.125C366.414 8.8125 369.247 8.5625 374.164 8.375ZM383.539 9.25H397.164C397.33 9.27083 397.414 9.35417 397.414 9.5V12C397.414 19.4167 397.58 29.125 397.914 41.125C397.914 42.3125 397.747 45.8542 397.414 51.75L397.039 52H384.164L383.914 51.875C383.914 39.2917 383.664 28 383.164 18V15C383.164 13.7917 383.205 11.9167 383.289 9.375L383.539 9.25ZM400.789 10.75H414.789L415.039 10.875C415.122 17.375 415.164 22.4583 415.164 26.125V41H415.289C418.705 41.1667 420.705 41.25 421.289 41.25H424.414C424.58 41.2708 424.664 41.3542 424.664 41.5C424.58 45.7083 424.539 49 424.539 51.375V51.75C424.539 51.9167 424.414 52 424.164 52C420.914 52 413.414 51.8333 401.664 51.5L401.539 51.25C401.539 45.4792 401.205 32.0208 400.539 10.875L400.789 10.75ZM427.539 10.75H441.539L441.789 10.875C441.872 17.375 441.914 22.4583 441.914 26.125V41H442.039C445.455 41.1667 447.455 41.25 448.039 41.25H451.164C451.33 41.2708 451.414 41.3542 451.414 41.5C451.33 45.7083 451.289 49 451.289 51.375V51.75C451.289 51.9167 451.164 52 450.914 52C447.664 52 440.164 51.8333 428.414 51.5L428.289 51.25C428.289 45.4792 427.955 32.0208 427.289 10.875L427.539 10.75ZM31.2888 82.75C32.5388 88.6042 34.0388 94.9792 35.7888 101.875C36.6222 105.771 38.0805 113.271 40.1638 124.375C37.9763 124.792 35.8097 125 33.6638 125H27.5388C27.268 125 26.768 120.875 26.0388 112.625C25.9555 112.625 25.9138 112.542 25.9138 112.375H21.6638C20.7472 120.708 20.2055 125.25 20.0388 126H17.2888C13.8305 126 9.83049 125.75 5.28882 125.25C7.53882 115.25 10.7055 103.333 14.7888 89.5C14.7888 89.2917 15.3722 87.125 16.5388 83C24.0805 82.8333 28.9972 82.75 31.2888 82.75ZM23.2888 97.125C22.9555 98.7917 22.5388 100.458 22.0388 102.125H25.0388V102C25.0388 101.604 24.5388 99.9792 23.5388 97.125H23.2888ZM62.2888 82.875C65.893 82.875 68.4347 84.9583 69.9138 89.125C70.2472 90.1875 70.4555 91.6042 70.5388 93.375C70.5388 99.9583 67.2055 104.625 60.5388 107.375C58.9555 108.125 57.1638 108.833 55.1638 109.5C54.8305 112.292 54.6222 114.625 54.5388 116.5C54.6222 119.188 54.6638 121.729 54.6638 124.125V125.375C54.1638 125.792 52.5388 126 49.7888 126H47.4138C45.2472 126 44.1638 125.875 44.1638 125.625C43.5805 120.604 43.1638 115.938 42.9138 111.625C42.9972 104.771 43.0388 100.188 43.0388 97.875C42.8722 89.2708 42.7888 84.5625 42.7888 83.75C48.5597 83.1667 55.0597 82.875 62.2888 82.875ZM54.5388 93.625L54.6638 94.5V94.75C54.6638 95.4583 54.7055 96.5833 54.7888 98.125C56.6222 98.125 58.1638 97.4583 59.4138 96.125C59.6638 95.7083 59.7888 95.375 59.7888 95.125V94.125C59.7888 93.625 58.9138 93.375 57.1638 93.375C55.9763 93.375 55.1013 93.4583 54.5388 93.625ZM92.6638 82.875C96.268 82.875 98.8097 84.9583 100.289 89.125C100.622 90.1875 100.83 91.6042 100.914 93.375C100.914 99.9583 97.5805 104.625 90.9138 107.375C89.3305 108.125 87.5388 108.833 85.5388 109.5C85.2055 112.292 84.9972 114.625 84.9138 116.5C84.9972 119.188 85.0388 121.729 85.0388 124.125V125.375C84.5388 125.792 82.9138 126 80.1638 126H77.7888C75.6222 126 74.5388 125.875 74.5388 125.625C73.9555 120.604 73.5388 115.938 73.2888 111.625C73.3722 104.771 73.4138 100.188 73.4138 97.875C73.2472 89.2708 73.1638 84.5625 73.1638 83.75C78.9347 83.1667 85.4347 82.875 92.6638 82.875ZM84.9138 93.625L85.0388 94.5V94.75C85.0388 95.4583 85.0805 96.5833 85.1638 98.125C86.9972 98.125 88.5388 97.4583 89.7888 96.125C90.0388 95.7083 90.1638 95.375 90.1638 95.125V94.125C90.1638 93.625 89.2888 93.375 87.5388 93.375C86.3513 93.375 85.4763 93.4583 84.9138 93.625ZM118.414 82.625H119.039C124.164 82.625 127.372 83.7083 128.664 85.875C130.414 88.0417 131.289 91.0417 131.289 94.875C131.289 100.021 128.414 103.812 122.664 106.25V106.5C125.768 108.333 128.06 110.625 129.539 113.375C130.622 116.146 131.164 118.354 131.164 120C131.164 120.729 131.039 122.646 130.789 125.75H130.664C124.247 125.229 121.039 124.688 121.039 124.125C120.747 118.458 120.33 115.625 119.789 115.625C118.705 114.104 117.455 112.979 116.039 112.25C115.872 113.75 115.705 116.292 115.539 119.875C115.705 123.062 115.789 124.812 115.789 125.125C114.205 125.708 112.747 126 111.414 126H110.914C108.851 126 106.851 125.792 104.914 125.375C104.747 120.917 104.664 115.417 104.664 108.875V104.125C104.664 96.2292 104.289 89.3125 103.539 83.375H103.664C109.351 82.875 114.268 82.625 118.414 82.625ZM115.414 93.375L115.539 93.875C115.539 94.8333 115.622 96.2917 115.789 98.25C119.205 97.8958 120.914 96.7292 120.914 94.75C120.997 94.5833 121.039 94.4583 121.039 94.375C121.039 93.375 120.205 92.875 118.539 92.875C117.997 92.875 116.955 93.0417 115.414 93.375ZM134.164 81.875C151.914 82.5625 160.789 82.9792 160.789 83.125C161.289 90.0208 161.58 94.3958 161.664 96.25C161.58 96.25 161.539 96.2917 161.539 96.375L147.289 96.875L147.414 97.125C147.414 98 147.497 99.375 147.664 101.25C153.685 101.667 157.06 101.958 157.789 102.125V102.25C157.622 105.75 157.455 107.667 157.289 108L148.289 108.25C148.685 111.917 148.976 113.75 149.164 113.75C157.414 114.5 161.997 114.958 162.914 115.125V115.25C162.497 122.417 162.164 126 161.914 126H159.414C154.914 126 146.414 125.458 133.914 124.375V82.125C133.935 81.9583 134.018 81.875 134.164 81.875ZM184.664 81.75H185.914C190.414 81.75 194.33 83.7917 197.664 87.875V88C197.018 92.1875 195.31 96.0625 192.539 99.625C190.101 98.0417 188.018 97.25 186.289 97.25H185.664C183.351 97.25 181.31 98.6667 179.539 101.5C178.955 102.646 178.664 103.938 178.664 105.375C178.664 108.917 179.58 111.25 181.414 112.375C182.664 112.958 183.955 113.25 185.289 113.25H185.539C187.455 113.25 189.497 112.667 191.664 111.5C193.164 112.354 194.497 114.729 195.664 118.625C196.247 120.729 196.539 122.604 196.539 124.25C192.122 125.417 188.039 126 184.289 126C176.81 126 171.768 123.167 169.164 117.5C166.83 112.979 165.664 108.854 165.664 105.125C165.58 105.125 165.539 104.958 165.539 104.625C165.539 97.7083 167.83 91.7917 172.414 86.875C176.268 83.4583 180.351 81.75 184.664 81.75ZM200.539 83.25H214.164C214.33 83.2708 214.414 83.3542 214.414 83.5V86C214.414 93.4167 214.58 103.125 214.914 115.125C214.914 116.312 214.747 119.854 214.414 125.75L214.039 126H201.164L200.914 125.875C200.914 113.292 200.664 102 200.164 92V89C200.164 87.7917 200.205 85.9167 200.289 83.375L200.539 83.25ZM243.539 82.75C244.789 88.6042 246.289 94.9792 248.039 101.875C248.872 105.771 250.33 113.271 252.414 124.375C250.226 124.792 248.06 125 245.914 125H239.789C239.518 125 239.018 120.875 238.289 112.625C238.205 112.625 238.164 112.542 238.164 112.375H233.914C232.997 120.708 232.455 125.25 232.289 126H229.539C226.08 126 222.08 125.75 217.539 125.25C219.789 115.25 222.955 103.333 227.039 89.5C227.039 89.2917 227.622 87.125 228.789 83C236.33 82.8333 241.247 82.75 243.539 82.75ZM235.539 97.125C235.205 98.7917 234.789 100.458 234.289 102.125H237.289V102C237.289 101.604 236.789 99.9792 235.789 97.125H235.539ZM255.289 81.875C257.247 81.875 268.83 82.0833 290.039 82.5C290.039 82.5833 290.08 82.625 290.164 82.625C290.414 90.0625 290.539 94.5208 290.539 96C289.872 96.1667 286.122 96.375 279.289 96.625C279.372 97.5417 279.622 107.292 280.039 125.875L279.789 126C272.789 125.667 269.289 125.375 269.289 125.125C267.685 106.125 266.81 96.625 266.664 96.625C259.747 96.125 255.872 95.7917 255.039 95.625V82.125C255.06 81.9583 255.143 81.875 255.289 81.875ZM293.539 83.25H307.164C307.33 83.2708 307.414 83.3542 307.414 83.5V86C307.414 93.4167 307.58 103.125 307.914 115.125C307.914 116.312 307.747 119.854 307.414 125.75L307.039 126H294.164L293.914 125.875C293.914 113.292 293.664 102 293.164 92V89C293.164 87.7917 293.205 85.9167 293.289 83.375L293.539 83.25ZM332.289 82.625H332.914C341.935 82.625 348.018 86.2083 351.164 93.375C352.164 95.9583 352.664 98.75 352.664 101.75V102.75C352.664 113.229 348.539 120.438 340.289 124.375C337.601 125.458 335.018 126 332.539 126H331.039C324.726 126 319.06 123.167 314.039 117.5C311.705 114.146 310.539 110.729 310.539 107.25V105.625C310.539 95.0208 314.622 87.8958 322.789 84.25C325.851 83.1667 329.018 82.625 332.289 82.625ZM325.289 105.875C325.289 108.812 327.08 111.479 330.664 113.875C331.685 114.208 332.435 114.375 332.914 114.375C335.643 114.375 338.018 112.792 340.039 109.625C340.705 108.292 341.039 106.833 341.039 105.25C341.039 101.562 339.33 99.0208 335.914 97.625C334.601 97.2917 333.518 97.125 332.664 97.125C329.31 97.125 326.935 99.375 325.539 103.875C325.372 104.833 325.289 105.5 325.289 105.875ZM356.289 83.375H363.289C363.872 83.875 367.164 88.7083 373.164 97.875H373.289V97.75C373.372 93.6667 373.414 90.5 373.414 88.25V84.125C373.435 83.9583 373.518 83.875 373.664 83.875C379.039 83.7917 383.372 83.75 386.664 83.75C386.83 83.7708 386.914 83.8542 386.914 84C385.83 100.667 384.83 114.5 383.914 125.5L383.539 125.75C380.039 125.667 377.747 125.625 376.664 125.625C372.83 120.021 369.789 115.854 367.539 113.125C367.455 116.958 367.414 119.875 367.414 121.875V125.75C367.414 125.917 367.33 126 367.164 126H362.539C360.539 126 358.205 125.917 355.539 125.75L355.289 125.375C355.955 115.688 356.289 107.021 356.289 99.375C356.289 93.1667 356.205 87.875 356.039 83.5L356.289 83.375ZM413.664 82.75H421.289C424.664 82.75 426.955 83.4167 428.164 84.75C431.33 87.4167 432.914 91.4167 432.914 96.75V97.625C432.914 101.729 431.372 104.438 428.289 105.75C427.268 106.083 426.643 106.25 426.414 106.25V106.375C427.83 106.667 429.414 107.917 431.164 110.125C432.58 112.083 433.289 114.083 433.289 116.125V116.375C433.289 120.708 431.705 123.542 428.539 124.875C426.747 125.625 425.039 126 423.414 126C411.414 126 405.414 125.542 405.414 124.625C405.414 120.438 405.33 106.562 405.164 83C405.247 83 405.289 82.9583 405.289 82.875C408.935 82.7917 411.726 82.75 413.664 82.75ZM416.289 93.25V98.875C418.643 98.875 420.31 98.0417 421.289 96.375C421.455 95.7917 421.539 95.3333 421.539 95C421.539 94.0417 421.039 93.3333 420.039 92.875C418.851 92.9583 417.601 93.0833 416.289 93.25ZM417.039 114.625H416.414C416.247 114.646 416.164 114.729 416.164 114.875V116.125C416.164 116.833 416.122 117.875 416.039 119.25H416.164C418.83 119.25 420.705 118.583 421.789 117.25C421.872 116.792 421.914 116.458 421.914 116.25C421.914 115.208 420.705 114.625 418.289 114.5C417.851 114.583 417.435 114.625 417.039 114.625ZM436.164 84.75H450.164L450.414 84.875C450.497 91.375 450.539 96.4583 450.539 100.125V115H450.664C454.08 115.167 456.08 115.25 456.664 115.25H459.789C459.955 115.271 460.039 115.354 460.039 115.5C459.955 119.708 459.914 123 459.914 125.375V125.75C459.914 125.917 459.789 126 459.539 126C456.289 126 448.789 125.833 437.039 125.5L436.914 125.25C436.914 119.479 436.58 106.021 435.914 84.875L436.164 84.75ZM484.414 82.625H485.039C494.06 82.625 500.143 86.2083 503.289 93.375C504.289 95.9583 504.789 98.75 504.789 101.75V102.75C504.789 113.229 500.664 120.438 492.414 124.375C489.726 125.458 487.143 126 484.664 126H483.164C476.851 126 471.185 123.167 466.164 117.5C463.83 114.146 462.664 110.729 462.664 107.25V105.625C462.664 95.0208 466.747 87.8958 474.914 84.25C477.976 83.1667 481.143 82.625 484.414 82.625ZM477.414 105.875C477.414 108.812 479.205 111.479 482.789 113.875C483.81 114.208 484.56 114.375 485.039 114.375C487.768 114.375 490.143 112.792 492.164 109.625C492.83 108.292 493.164 106.833 493.164 105.25C493.164 101.562 491.455 99.0208 488.039 97.625C486.726 97.2917 485.643 97.125 484.789 97.125C481.435 97.125 479.06 99.375 477.664 103.875C477.497 104.833 477.414 105.5 477.414 105.875ZM526.664 81.125H527.414C532.185 81.125 536.268 83.2083 539.664 87.375C538.247 92.3333 536.33 96.125 533.914 98.75C531.455 97.3333 529.289 96.625 527.414 96.625C524.226 96.625 521.976 98.625 520.664 102.625C520.497 103.292 520.414 104 520.414 104.75V104.875C520.414 108.167 521.705 110.917 524.289 113.125C524.976 113.625 525.726 113.875 526.539 113.875C527.455 113.875 528.497 113 529.664 111.25C527.33 110.625 526.164 110.208 526.164 110C526.164 109.167 526.08 107.458 525.914 104.875C526.06 103.208 526.268 102.375 526.539 102.375H542.789C543.122 102.375 543.289 104.208 543.289 107.875V111.875C543.289 112.042 543.205 112.125 543.039 112.125C540.122 111.958 538.33 111.875 537.664 111.875V112.125C537.664 118.833 534.08 123.375 526.914 125.75C526.08 125.917 525.247 126 524.414 126H524.164C519.31 126 514.976 123.083 511.164 117.25C508.664 112.562 507.414 108.188 507.414 104.125C507.414 97.0417 509.705 91.0417 514.289 86.125C518.039 82.7917 522.164 81.125 526.664 81.125Z" fill="#DD1A21"/>
<path d="M124.586 8.5C125.836 14.3542 127.336 20.7292 129.086 27.625C129.92 31.5208 131.378 39.0208 133.461 50.125C133.024 50.2917 132.065 50.4167 130.586 50.5V50.625C130.753 51.7292 130.836 52.3125 130.836 52.375C128.732 52.7917 126.607 53 124.461 53H118.211C117.982 53 117.649 50.3333 117.211 45C116.878 41.9167 116.628 40.375 116.461 40.375H114.711C113.961 47.1667 113.503 50.9583 113.336 51.75H111.086C111.086 53.25 110.92 54 110.586 54H107.836C104.399 54 100.44 53.75 95.9612 53.25C98.1278 43.8333 101.17 32.3333 105.086 18.75C106.42 13.8542 107.17 11.2708 107.336 11H109.211C109.378 10.25 109.586 9.5 109.836 8.75C117.378 8.58333 122.295 8.5 124.586 8.5ZM110.586 9.75L102.336 39.75C102.003 40.9583 101.17 44.4167 99.8362 50.125C102.628 50.4583 106.836 50.625 112.461 50.625C113.378 42.5 113.92 38 114.086 37.125H119.961C120.232 37.125 120.732 41.25 121.461 49.5C121.545 49.5 121.586 49.5833 121.586 49.75H126.086C130.17 49.6458 132.211 49.4375 132.211 49.125C129.628 34.7292 127.295 23.8125 125.211 16.375C124.461 12.9375 124.003 10.6458 123.836 9.5C121.732 9.58333 117.315 9.66667 110.586 9.75ZM116.961 20.75C117.545 21.7292 118.253 23.6042 119.086 26.375C119.42 27.6458 119.586 28.4375 119.586 28.75L119.336 28.875H114.336L114.086 28.75C115.232 23.4167 116.19 20.75 116.961 20.75ZM160.211 8.5H167.836C171.211 8.5 173.503 9.16667 174.711 10.5C177.878 13.1667 179.461 17.1667 179.461 22.5V23.375C179.461 27.1458 178.086 29.8125 175.336 31.375L174.336 32.625V32.75C176.649 34 178.399 36.3333 179.586 39.75C179.753 40.4167 179.836 41.125 179.836 41.875V42.125C179.836 46.125 178.378 48.9583 175.461 50.625C173.607 52.875 170.899 54 167.336 54C157.211 54 151.253 53.625 149.461 52.875C149.378 50 149.336 48.5 149.336 48.375C149.336 40.75 149.253 28.2917 149.086 11L149.336 10.875H151.711V8.875L151.836 8.625C155.482 8.54167 158.274 8.5 160.211 8.5ZM152.711 9.625V9.75C152.878 23.7708 152.961 35.5208 152.961 45C153.045 47.5417 153.086 49.1667 153.086 49.875C153.086 50.2083 158.628 50.5 169.711 50.75C173.607 50.75 176.357 49.375 177.961 46.625C178.545 44.8333 178.836 43.25 178.836 41.875C178.836 39.1042 177.378 36.4792 174.461 34C173.586 33.3333 172.003 32.8333 169.711 32.5C169.711 32.125 169.67 31.875 169.586 31.75L174.586 30.5C177.17 29.4583 178.461 26.8333 178.461 22.625C178.461 16.2917 176.253 12.0833 171.836 10C171.524 9.66667 169.524 9.5 165.836 9.5C165.003 9.5 160.628 9.54167 152.711 9.625ZM166.711 17.625C168.295 18.1458 169.086 19.1875 169.086 20.75V21.25C169.086 23.2917 167.503 24.7083 164.336 25.5C163.607 25.5833 162.982 25.625 162.461 25.625H162.086C161.92 25.625 161.836 25.5417 161.836 25.375V18.25C161.836 17.9792 163.461 17.7708 166.711 17.625ZM162.836 21V24.625C164.586 24.625 165.461 24.25 165.461 23.5V23C165.232 21.5833 164.649 20.875 163.711 20.875L162.836 21ZM164.961 39.25C167.149 39.25 168.565 39.8333 169.211 41C169.378 41.3125 169.461 41.6458 169.461 42V42.375C169.461 43.9583 168.211 45.0417 165.711 45.625C164.94 45.875 163.982 46 162.836 46H161.836C161.67 46 161.586 45.9167 161.586 45.75V44.875C161.586 43.5833 161.628 41.8333 161.711 39.625C162.503 39.375 163.586 39.25 164.961 39.25ZM162.711 42.625V45C163.19 45 164.232 44.875 165.836 44.625V44.25C165.607 43.1667 164.69 42.625 163.086 42.625H162.711ZM204.211 8.375H204.836C213.857 8.375 219.94 11.9583 223.086 19.125C224.086 21.7083 224.586 24.5 224.586 27.5V28.5C224.586 37.4167 221.378 44.2083 214.961 48.875C211.17 52.2917 206.836 54 201.961 54H200.336C194.482 54 189.107 51.5 184.211 46.5C181.295 42.9792 179.836 39.1458 179.836 35V34.875C179.836 24.9583 182.836 17.9583 188.836 13.875C192.565 10.2083 197.69 8.375 204.211 8.375ZM183.461 32.875C183.461 39.6875 187.336 45.0625 195.086 49C198.045 50.1667 200.878 50.75 203.586 50.75H203.711C212.107 50.75 218.107 46.7917 221.711 38.875C222.961 35.375 223.586 31.6667 223.586 27.75C223.586 18.2917 219.336 12.4167 210.836 10.125C208.795 9.625 206.711 9.375 204.586 9.375C193.94 9.375 187.274 14 184.586 23.25C183.836 26 183.461 29.2083 183.461 32.875ZM204.461 21.875H204.711C209.607 21.875 212.649 24.2917 213.836 29.125C213.92 29.8333 213.961 30.4167 213.961 30.875V31.375C213.961 36.0208 211.42 39.2292 206.336 41C205.628 41.0833 205.045 41.125 204.586 41.125C201.67 41.125 199.045 38.9167 196.711 34.5C196.378 33.2917 196.211 32.375 196.211 31.75V31.5C196.211 27.75 197.92 24.7917 201.336 22.625C202.399 22.125 203.44 21.875 204.461 21.875ZM197.211 31.625C197.211 34.5625 199.003 37.2292 202.586 39.625C203.607 39.9583 204.357 40.125 204.836 40.125C207.42 40.125 209.086 38.9167 209.836 36.5C210.17 35.5625 210.336 34.5625 210.336 33.5C210.336 29.7708 208.836 27.2292 205.836 25.875C204.524 25.375 203.232 25.125 201.961 25.125C199.92 25.125 198.67 25.9583 198.211 27.625C197.545 28.8958 197.211 30.2292 197.211 31.625ZM235.711 8.5H243.336C246.711 8.5 249.003 9.16667 250.211 10.5C253.378 13.1667 254.961 17.1667 254.961 22.5V23.375C254.961 27.1458 253.586 29.8125 250.836 31.375L249.836 32.625V32.75C252.149 34 253.899 36.3333 255.086 39.75C255.253 40.4167 255.336 41.125 255.336 41.875V42.125C255.336 46.125 253.878 48.9583 250.961 50.625C249.107 52.875 246.399 54 242.836 54C232.711 54 226.753 53.625 224.961 52.875C224.878 50 224.836 48.5 224.836 48.375C224.836 40.75 224.753 28.2917 224.586 11L224.836 10.875H227.211V8.875L227.336 8.625C230.982 8.54167 233.774 8.5 235.711 8.5ZM228.211 9.625V9.75C228.378 23.7708 228.461 35.5208 228.461 45C228.545 47.5417 228.586 49.1667 228.586 49.875C228.586 50.2083 234.128 50.5 245.211 50.75C249.107 50.75 251.857 49.375 253.461 46.625C254.045 44.8333 254.336 43.25 254.336 41.875C254.336 39.1042 252.878 36.4792 249.961 34C249.086 33.3333 247.503 32.8333 245.211 32.5C245.211 32.125 245.17 31.875 245.086 31.75L250.086 30.5C252.67 29.4583 253.961 26.8333 253.961 22.625C253.961 16.2917 251.753 12.0833 247.336 10C247.024 9.66667 245.024 9.5 241.336 9.5C240.503 9.5 236.128 9.54167 228.211 9.625ZM242.211 17.625C243.795 18.1458 244.586 19.1875 244.586 20.75V21.25C244.586 23.2917 243.003 24.7083 239.836 25.5C239.107 25.5833 238.482 25.625 237.961 25.625H237.586C237.42 25.625 237.336 25.5417 237.336 25.375V18.25C237.336 17.9792 238.961 17.7708 242.211 17.625ZM238.336 21V24.625C240.086 24.625 240.961 24.25 240.961 23.5V23C240.732 21.5833 240.149 20.875 239.211 20.875L238.336 21ZM240.461 39.25C242.649 39.25 244.065 39.8333 244.711 41C244.878 41.3125 244.961 41.6458 244.961 42V42.375C244.961 43.9583 243.711 45.0417 241.211 45.625C240.44 45.875 239.482 46 238.336 46H237.336C237.17 46 237.086 45.9167 237.086 45.75V44.875C237.086 43.5833 237.128 41.8333 237.211 39.625C238.003 39.375 239.086 39.25 240.461 39.25ZM238.211 42.625V45C238.69 45 239.732 44.875 241.336 44.625V44.25C241.107 43.1667 240.19 42.625 238.586 42.625H238.211ZM266.461 8.5H274.086C277.461 8.5 279.753 9.16667 280.961 10.5C284.128 13.1667 285.711 17.1667 285.711 22.5V23.375C285.711 27.1458 284.336 29.8125 281.586 31.375L280.586 32.625V32.75C282.899 34 284.649 36.3333 285.836 39.75C286.003 40.4167 286.086 41.125 286.086 41.875V42.125C286.086 46.125 284.628 48.9583 281.711 50.625C279.857 52.875 277.149 54 273.586 54C263.461 54 257.503 53.625 255.711 52.875C255.628 50 255.586 48.5 255.586 48.375C255.586 40.75 255.503 28.2917 255.336 11L255.586 10.875H257.961V8.875L258.086 8.625C261.732 8.54167 264.524 8.5 266.461 8.5ZM258.961 9.625V9.75C259.128 23.7708 259.211 35.5208 259.211 45C259.295 47.5417 259.336 49.1667 259.336 49.875C259.336 50.2083 264.878 50.5 275.961 50.75C279.857 50.75 282.607 49.375 284.211 46.625C284.795 44.8333 285.086 43.25 285.086 41.875C285.086 39.1042 283.628 36.4792 280.711 34C279.836 33.3333 278.253 32.8333 275.961 32.5C275.961 32.125 275.92 31.875 275.836 31.75L280.836 30.5C283.42 29.4583 284.711 26.8333 284.711 22.625C284.711 16.2917 282.503 12.0833 278.086 10C277.774 9.66667 275.774 9.5 272.086 9.5C271.253 9.5 266.878 9.54167 258.961 9.625ZM272.961 17.625C274.545 18.1458 275.336 19.1875 275.336 20.75V21.25C275.336 23.2917 273.753 24.7083 270.586 25.5C269.857 25.5833 269.232 25.625 268.711 25.625H268.336C268.17 25.625 268.086 25.5417 268.086 25.375V18.25C268.086 17.9792 269.711 17.7708 272.961 17.625ZM269.086 21V24.625C270.836 24.625 271.711 24.25 271.711 23.5V23C271.482 21.5833 270.899 20.875 269.961 20.875L269.086 21ZM271.211 39.25C273.399 39.25 274.815 39.8333 275.461 41C275.628 41.3125 275.711 41.6458 275.711 42V42.375C275.711 43.9583 274.461 45.0417 271.961 45.625C271.19 45.875 270.232 46 269.086 46H268.086C267.92 46 267.836 45.9167 267.836 45.75V44.875C267.836 43.5833 267.878 41.8333 267.961 39.625C268.753 39.375 269.836 39.25 271.211 39.25ZM268.961 42.625V45C269.44 45 270.482 44.875 272.086 44.625V44.25C271.857 43.1667 270.94 42.625 269.336 42.625H268.961ZM295.836 8H299.711C301.461 8 302.336 8.29167 302.336 8.875C304.836 13.8958 306.711 17.2292 307.961 18.875H308.086C309.253 15.7708 310.503 12.8958 311.836 10.25H313.211C314.024 8.75 314.482 8 314.586 8H316.211C320.649 8 324.69 8.66667 328.336 10C324.69 15.3958 321.399 20.7708 318.461 26.125C316.295 29.25 315.211 31.125 315.211 31.75C314.711 35.2708 314.461 41.8958 314.461 51.625C314.378 51.625 314.336 51.6667 314.336 51.75C313.503 51.6667 312.878 51.625 312.461 51.625H311.961V53.75L311.836 54C310.857 53.9167 310.149 53.875 309.711 53.875H300.586C300.42 53.875 300.336 53.7917 300.336 53.625C300.17 45.2917 300.086 39.5417 300.086 36.375V34.625C300.086 34.3125 299.086 32.8958 297.086 30.375C293.732 26.0417 290.065 19.75 286.086 11.5C286.253 11.3333 287.336 11.0417 289.336 10.625C288.92 9.875 288.711 9.375 288.711 9.125C291.628 8.375 294.003 8 295.836 8ZM290.086 10C293.857 17.1458 296.607 22.0208 298.336 24.625C301.899 29.25 303.69 31.6667 303.711 31.875V34.125C303.711 37.4167 303.795 42.9167 303.961 50.625H313.461V47.125C313.524 36.0625 313.982 30.2708 314.836 29.75C317.357 25.8333 320.357 20.875 323.836 14.875C323.94 14.7708 324.899 13.3542 326.711 10.625V10.5C323.378 9.5 319.503 9 315.086 9C313.92 11.4792 312.545 14.6042 310.961 18.375C309.94 19.9792 309.19 21.0208 308.711 21.5C306.19 18.4375 304.357 15.4792 303.211 12.625C302.128 10.7917 301.503 9.625 301.336 9.125C299.961 9.04167 298.92 9 298.211 9H296.461C294.545 9 292.42 9.29167 290.086 9.875V10ZM375.586 8.125C379.836 8.25 381.961 8.41667 381.961 8.625C381.795 12.625 381.67 17.75 381.586 24C381.67 33.1042 381.711 41.9792 381.711 50.625L381.461 50.75H379.211V52.75C379.211 52.9167 379.128 53 378.961 53C378.295 53 373.878 52.9583 365.711 52.875L365.586 52.625V52.5C365.586 47.4792 365.42 43.3958 365.086 40.25H362.836C363.003 45.5208 363.086 49.3125 363.086 51.625L362.836 51.75H360.461C360.545 52.8958 360.586 53.6042 360.586 53.875L360.336 54C351.42 53.8333 346.586 53.75 345.836 53.75C345.836 53.6667 345.795 53.625 345.711 53.625C345.628 50.9792 345.586 49.1042 345.586 48C345.586 33.1042 345.128 21.6458 344.211 13.625C344.128 12.3958 344.045 11.5625 343.961 11.125L344.211 11H346.711V10.375L346.586 8.875C346.67 8.875 346.711 8.83333 346.711 8.75C349.607 8.66667 351.69 8.625 352.961 8.625H361.461C361.857 8.625 362.19 13.625 362.461 23.625V25.25H364.961V25.125C364.711 19.2917 364.586 15.5833 364.586 14V11.25C364.586 11.125 364.711 11 364.961 10.875C365.399 10.875 366.107 10.8333 367.086 10.75V9C367.086 8.625 369.92 8.33333 375.586 8.125ZM368.211 9.625V11.375C368.211 12.6875 368.336 16.6042 368.586 23.125V26C368.586 26.1667 368.503 26.25 368.336 26.25C366.774 26.25 364.482 26.2917 361.461 26.375L361.336 26.125V22.125C361.336 18.2292 361.128 14.1042 360.711 9.75L359.461 9.625H357.961C355.461 9.625 352.045 9.66667 347.711 9.75C348.711 18.9583 349.211 30.2917 349.211 43.75V45C349.211 45.8958 349.253 47.6875 349.336 50.375C349.774 50.4583 350.024 50.5 350.086 50.5C353.711 50.5 357.711 50.5833 362.086 50.75L361.711 37L361.961 36.875H368.336C368.836 36.875 369.128 41.125 369.211 49.625H380.711C380.628 35.7292 380.586 27.1042 380.586 23.75C380.586 20.9167 380.67 16.125 380.836 9.375C379.045 9.29167 377.711 9.25 376.836 9.25H375.211C373.253 9.25 370.92 9.375 368.211 9.625ZM384.961 9H398.586C398.753 9.02083 398.836 9.10417 398.836 9.25V11.75C398.836 19.1667 399.003 28.875 399.336 40.875C399.336 42.0625 399.17 45.6042 398.836 51.5L398.461 51.75H396.336C396.336 53.25 396.211 54 395.961 54H382.961C382.795 54 382.711 53.9167 382.711 53.75C382.711 39.8125 382.461 28.5625 381.961 20C381.961 19.2083 382.003 16.3333 382.086 11.375L382.336 11.25H384.711V9.25C384.732 9.08333 384.815 9 384.961 9ZM385.711 10C385.628 14.5417 385.586 17.2083 385.586 18C386.086 25.8542 386.336 36.7708 386.336 50.75H387.586C390.086 50.75 393.503 50.7083 397.836 50.625C398.17 44.8125 398.336 41.4792 398.336 40.625C398.003 30.1667 397.795 19.9583 397.711 10H385.711ZM402.211 10.5H416.211L416.461 10.625C416.545 17.125 416.586 22.2083 416.586 25.875V40.75H416.711C420.128 40.9167 422.128 41 422.711 41H425.836C426.003 41.0208 426.086 41.1042 426.086 41.25C426.003 45.4583 425.961 48.75 425.961 51.125V51.5C425.961 51.6667 425.878 51.75 425.711 51.75H423.461V53.75C423.461 53.9167 423.336 54 423.086 54C419.586 54 412.045 53.8333 400.461 53.5C400.378 53.3333 400.336 53.2083 400.336 53.125C400.336 45.5625 400.003 32.1458 399.336 12.875L399.586 12.75H401.961V10.75C401.982 10.5833 402.065 10.5 402.211 10.5ZM402.961 11.625C402.961 11.7083 403.003 11.8333 403.086 12C403.086 13.5 403.336 23 403.836 40.5C403.92 40.5 403.961 43.75 403.961 50.25H404.711L424.961 50.75V42L424.711 42.125H423.836C423.399 42.125 420.69 42 415.711 41.75C415.628 41.5833 415.586 41.4583 415.586 41.375C415.586 35.3542 415.545 25.3958 415.461 11.5H414.211C411.503 11.5 407.753 11.5417 402.961 11.625ZM428.961 10.5H442.961L443.211 10.625C443.295 17.125 443.336 22.2083 443.336 25.875V40.75H443.461C446.878 40.9167 448.878 41 449.461 41H452.586C452.753 41.0208 452.836 41.1042 452.836 41.25C452.753 45.4583 452.711 48.75 452.711 51.125V51.5C452.711 51.6667 452.628 51.75 452.461 51.75H450.211V53.75C450.211 53.9167 450.086 54 449.836 54C446.336 54 438.795 53.8333 427.211 53.5C427.128 53.3333 427.086 53.2083 427.086 53.125C427.086 45.5625 426.753 32.1458 426.086 12.875L426.336 12.75H428.711V10.75C428.732 10.5833 428.815 10.5 428.961 10.5ZM429.711 11.625C429.711 11.7083 429.753 11.8333 429.836 12C429.836 13.5 430.086 23 430.586 40.5C430.67 40.5 430.711 43.75 430.711 50.25H431.461L451.711 50.75V42L451.461 42.125H450.586C450.149 42.125 447.44 42 442.461 41.75C442.378 41.5833 442.336 41.4583 442.336 41.375C442.336 35.3542 442.295 25.3958 442.211 11.5H440.961C438.253 11.5 434.503 11.5417 429.711 11.625ZM32.7112 82.5C33.9612 88.3542 35.4612 94.7292 37.2112 101.625C38.0445 105.521 39.5028 113.021 41.5862 124.125C41.1487 124.292 40.1903 124.417 38.7112 124.5V124.625C38.8778 125.729 38.9612 126.312 38.9612 126.375C36.857 126.792 34.732 127 32.5862 127H26.3362C26.107 127 25.7737 124.333 25.3362 119C25.0028 115.917 24.7528 114.375 24.5862 114.375H22.8362C22.0862 121.167 21.6278 124.958 21.4612 125.75H19.2112C19.2112 127.25 19.0445 128 18.7112 128H15.9612C12.5237 128 8.56535 127.75 4.08618 127.25C6.25285 117.833 9.29451 106.333 13.2112 92.75C14.5445 87.8542 15.2945 85.2708 15.4612 85H17.3362C17.5028 84.25 17.7112 83.5 17.9612 82.75C25.5028 82.5833 30.4195 82.5 32.7112 82.5ZM18.7112 83.75L10.4612 113.75C10.1278 114.958 9.29451 118.417 7.96118 124.125C10.7528 124.458 14.9612 124.625 20.5862 124.625C21.5028 116.5 22.0445 112 22.2112 111.125H28.0862C28.357 111.125 28.857 115.25 29.5862 123.5C29.6695 123.5 29.7112 123.583 29.7112 123.75H34.2112C38.2945 123.646 40.3362 123.438 40.3362 123.125C37.7528 108.729 35.4195 97.8125 33.3362 90.375C32.5862 86.9375 32.1278 84.6458 31.9612 83.5C29.857 83.5833 25.4403 83.6667 18.7112 83.75ZM25.0862 94.75C25.6695 95.7292 26.3778 97.6042 27.2112 100.375C27.5445 101.646 27.7112 102.438 27.7112 102.75L27.4612 102.875H22.4612L22.2112 102.75C23.357 97.4167 24.3153 94.75 25.0862 94.75ZM63.7112 82.625C67.3153 82.625 69.857 84.7083 71.3362 88.875C71.6695 89.9375 71.8778 91.3542 71.9612 93.125C71.9612 98.2708 69.9195 102.271 65.8362 105.125C63.1487 107.604 59.982 109.479 56.3362 110.75V110.875L55.9612 116.25C56.0445 118.938 56.0862 121.479 56.0862 123.875V125.125C56.0862 125.354 55.2528 125.521 53.5862 125.625V127.375C53.0862 127.792 51.4612 128 48.7112 128H46.2112C44.0445 128 42.9612 127.875 42.9612 127.625C42.3778 122.271 41.9612 117.396 41.7112 113C41.8153 105.333 41.8987 100.875 41.9612 99.625C41.8778 98.75 41.7528 94.125 41.5862 85.75C42.1487 85.5833 43.0237 85.5 44.2112 85.5V83.625C44.2112 83.2083 50.5445 82.875 63.2112 82.625H63.7112ZM45.2112 84.375C45.2112 84.6042 45.3362 88.8125 45.5862 97L45.3362 110.5C45.5862 115.375 46.0028 120.083 46.5862 124.625C48.3778 124.708 49.6695 124.75 50.4612 124.75C53.5445 124.688 55.0862 124.521 55.0862 124.25C55.0028 120.646 54.9612 118.062 54.9612 116.5C55.232 111 55.5237 108.25 55.8362 108.25C60.357 107.292 64.482 105.083 68.2112 101.625C69.9612 99.3125 70.8362 96.6458 70.8362 93.625V92.375C70.8362 88.3542 69.2528 85.6042 66.0862 84.125C65.5445 83.875 64.6695 83.7083 63.4612 83.625C59.1695 83.625 53.0862 83.875 45.2112 84.375ZM58.2112 92.125H59.2112C61.2945 92.125 62.3362 92.875 62.3362 94.375C62.3362 96.1875 61.2945 97.4792 59.2112 98.25C58.1903 98.6667 56.982 98.875 55.5862 98.875H55.4612C55.1903 98.875 55.0237 96.75 54.9612 92.5C55.6695 92.25 56.7528 92.125 58.2112 92.125ZM56.0862 95.375V95.5C56.1695 96.625 56.2112 97.4167 56.2112 97.875C57.8778 97.7292 58.7112 97.3958 58.7112 96.875V96.75C58.7112 95.8333 58.0028 95.375 56.5862 95.375H56.0862ZM94.0862 82.625C97.6903 82.625 100.232 84.7083 101.711 88.875C102.045 89.9375 102.253 91.3542 102.336 93.125C102.336 98.2708 100.295 102.271 96.2112 105.125C93.5237 107.604 90.357 109.479 86.7112 110.75V110.875L86.3362 116.25C86.4195 118.938 86.4612 121.479 86.4612 123.875V125.125C86.4612 125.354 85.6278 125.521 83.9612 125.625V127.375C83.4612 127.792 81.8362 128 79.0862 128H76.5862C74.4195 128 73.3362 127.875 73.3362 127.625C72.7528 122.271 72.3362 117.396 72.0862 113C72.1903 105.333 72.2737 100.875 72.3362 99.625C72.2528 98.75 72.1278 94.125 71.9612 85.75C72.5237 85.5833 73.3987 85.5 74.5862 85.5V83.625C74.5862 83.2083 80.9195 82.875 93.5862 82.625H94.0862ZM75.5862 84.375C75.5862 84.6042 75.7112 88.8125 75.9612 97L75.7112 110.5C75.9612 115.375 76.3778 120.083 76.9612 124.625C78.7528 124.708 80.0445 124.75 80.8362 124.75C83.9195 124.688 85.4612 124.521 85.4612 124.25C85.3778 120.646 85.3362 118.062 85.3362 116.5C85.607 111 85.8987 108.25 86.2112 108.25C90.732 107.292 94.857 105.083 98.5862 101.625C100.336 99.3125 101.211 96.6458 101.211 93.625V92.375C101.211 88.3542 99.6278 85.6042 96.4612 84.125C95.9195 83.875 95.0445 83.7083 93.8362 83.625C89.5445 83.625 83.4612 83.875 75.5862 84.375ZM88.5862 92.125H89.5862C91.6695 92.125 92.7112 92.875 92.7112 94.375C92.7112 96.1875 91.6695 97.4792 89.5862 98.25C88.5653 98.6667 87.357 98.875 85.9612 98.875H85.8362C85.5653 98.875 85.3987 96.75 85.3362 92.5C86.0445 92.25 87.1278 92.125 88.5862 92.125ZM86.4612 95.375V95.5C86.5445 96.625 86.5862 97.4167 86.5862 97.875C88.2528 97.7292 89.0862 97.3958 89.0862 96.875V96.75C89.0862 95.8333 88.3778 95.375 86.9612 95.375H86.4612ZM119.836 82.25H120.461C125.586 82.25 128.795 83.3333 130.086 85.5C131.836 87.6667 132.711 90.6667 132.711 94.5C132.711 98.625 130.878 101.875 127.211 104.25C126.732 104.854 125.899 105.604 124.711 106.5C127.982 108.688 130.065 110.938 130.961 113.25C132.045 115.646 132.586 117.771 132.586 119.625C132.586 120.354 132.461 122.271 132.211 125.375H132.086C131.44 125.375 130.69 125.292 129.836 125.125C129.753 126.75 129.628 127.625 129.461 127.75C125.357 127.312 122.149 126.812 119.836 126.25V126.125C119.836 120.458 119.086 117.125 117.586 116.125L117.211 115.875L117.086 116.125C117.086 116.833 117.045 117.958 116.961 119.5C117.128 122.688 117.211 124.438 117.211 124.75C116.565 125 115.69 125.25 114.586 125.5V125.625L114.711 126.875C113.045 127.625 111.378 128 109.711 128C105.711 127.667 103.711 127.375 103.711 127.125C103.545 120.146 103.461 113.604 103.461 107.5V104C103.461 97.0417 103.086 90.8333 102.336 85.375C103.045 85.2292 103.961 85.1042 105.086 85L104.961 83H105.086C110.774 82.5 115.69 82.25 119.836 82.25ZM106.086 84C106.753 89.0625 107.086 94.8125 107.086 101.25V104.625C107.086 111.167 107.17 117.667 107.336 124.125C109.42 124.458 111.17 124.625 112.586 124.625C113.628 124.625 114.836 124.417 116.211 124C116.211 123.917 116.17 123.792 116.086 123.625C116.003 121.5 115.961 120.083 115.961 119.375C115.961 117.125 116.17 114.083 116.586 110.25C120.92 112.25 123.086 115 123.086 118.5C123.336 121.208 123.503 122.792 123.586 123.25C124.899 123.583 127.44 123.917 131.211 124.25C131.378 122.896 131.503 121.312 131.586 119.5C131.586 117.312 130.67 114.646 128.836 111.5C126.357 108.875 124.024 107 121.836 105.875V105.625C126.399 104.021 129.44 101.729 130.961 98.75C131.461 97.3542 131.711 95.8542 131.711 94.25C131.711 89.1458 129.92 85.6875 126.336 83.875C124.524 83.4583 122.357 83.25 119.836 83.25C116.045 83.25 111.461 83.5 106.086 84ZM120.211 91.5H120.336C122.42 91.5 123.461 92.375 123.461 94.125C123.461 96.1875 122.211 97.6458 119.711 98.5C118.67 98.8333 117.545 99 116.336 99C116.19 99 116.024 96.75 115.836 92.25C117.336 91.75 118.795 91.5 120.211 91.5ZM117.086 94.75C117.086 94.8333 117.045 94.875 116.961 94.875L117.211 97.875C118.878 97.875 119.711 97.5417 119.711 96.875C119.795 96.75 119.836 96.5 119.836 96.125C119.836 95.2083 118.92 94.75 117.086 94.75ZM135.586 81.625C153.336 82.3125 162.211 82.7292 162.211 82.875C162.711 89.7708 163.003 94.1458 163.086 96C162.92 96.0833 162.795 96.125 162.711 96.125C162.378 96.125 161.628 96.1667 160.461 96.25V96.75L160.586 98.25C160.503 98.25 160.461 98.2917 160.461 98.375C154.274 98.625 150.44 98.75 148.961 98.75V99.125C148.961 99.5417 149.003 100.167 149.086 101C155.107 101.417 158.482 101.708 159.211 101.875V102C159.065 105.833 158.857 107.75 158.586 107.75H157.336C156.67 107.75 156.336 108 156.336 108.5V109.625L156.086 110C154.295 110.083 152.961 110.125 152.086 110.125H149.961C150.211 112.375 150.42 113.5 150.586 113.5C158.836 114.25 163.42 114.708 164.336 114.875V115C163.92 122.167 163.586 125.75 163.336 125.75H161.211L161.086 126.625V127.625C161.086 127.75 160.961 127.875 160.711 128H157.961C154.836 128 146.461 127.5 132.836 126.5L132.711 126.25V84.125C132.732 83.9583 132.815 83.875 132.961 83.875H134.711L135.336 84V81.875C135.357 81.7083 135.44 81.625 135.586 81.625ZM136.336 82.625V123.25C149.461 124.25 158.086 124.75 162.211 124.75H162.586C162.92 121.458 163.086 118.458 163.086 115.75C154.982 115 150.44 114.542 149.461 114.375C148.961 110.271 148.628 107.854 148.461 107.125C148.545 107.125 148.586 107.083 148.586 107L157.836 106.75C157.92 106.458 157.961 105.125 157.961 102.75C152.253 102.333 148.961 102.042 148.086 101.875C147.836 98.4583 147.711 96.4167 147.711 95.75C147.795 95.75 147.836 95.7083 147.836 95.625L162.086 95.125L161.961 94.875C161.961 94.0625 161.711 90.3542 161.211 83.75C146.19 83.0833 138.107 82.75 136.961 82.75L136.336 82.625ZM185.961 81.5H187.211C191.711 81.5 195.628 83.5417 198.961 87.625V87.75C198.315 91.9375 196.607 95.8125 193.836 99.375L193.211 99L191.211 101.625C188.815 100.042 186.732 99.25 184.961 99.25H184.461C182.149 99.25 180.774 100.417 180.336 102.75C180.107 103.021 179.982 103.812 179.961 105.125C179.961 108.667 180.878 111 182.711 112.125C183.961 112.708 185.253 113 186.586 113H186.836C188.753 113 190.795 112.417 192.961 111.25C194.461 112.104 195.795 114.479 196.961 118.375C197.545 120.479 197.836 122.354 197.836 124C196.732 124.333 195.857 124.542 195.211 124.625V124.75L195.336 126.25C190.92 127.417 186.753 128 182.836 128C174.94 128 169.649 124.583 166.961 117.75C165.211 113.521 164.336 109.979 164.336 107.125V106C164.336 99.9375 166.378 94.4375 170.461 89.5C175.253 85.0417 178.67 82.7083 180.711 82.5C182.503 81.8333 184.253 81.5 185.961 81.5ZM167.961 103.875V104.5C167.961 108.646 169.378 113.271 172.211 118.375C174.878 122.542 178.961 124.625 184.461 124.625H186.586C189.357 124.625 192.774 124.167 196.836 123.25C196.732 120.792 195.815 117.667 194.086 113.875L192.961 112.5C190.378 113.583 188.253 114.125 186.586 114.125C182.92 114.125 180.545 112.5 179.461 109.25C179.128 108.25 178.961 107.125 178.961 105.875V104.75C178.961 100.833 181.045 98 185.211 96.25C185.878 96.0833 186.545 95.9583 187.211 95.875C189.045 95.875 191.17 96.5833 193.586 98C195.961 94.7292 197.378 91.3125 197.836 87.75C194.711 84.25 190.92 82.5 186.461 82.5C180.878 82.5 176.17 84.9167 172.336 89.75C169.42 94.2292 167.961 98.9375 167.961 103.875ZM201.961 83H215.586C215.753 83.0208 215.836 83.1042 215.836 83.25V85.75C215.836 93.1667 216.003 102.875 216.336 114.875C216.336 116.062 216.17 119.604 215.836 125.5L215.461 125.75H213.336C213.336 127.25 213.211 128 212.961 128H199.961C199.795 128 199.711 127.917 199.711 127.75C199.711 113.812 199.461 102.562 198.961 94C198.961 93.2083 199.003 90.3333 199.086 85.375L199.336 85.25H201.711V83.25C201.732 83.0833 201.815 83 201.961 83ZM202.711 84C202.628 88.5417 202.586 91.2083 202.586 92C203.086 99.8542 203.336 110.771 203.336 124.75H204.586C207.086 124.75 210.503 124.708 214.836 124.625C215.17 118.812 215.336 115.479 215.336 114.625C215.003 104.167 214.795 93.9583 214.711 84H202.711ZM244.961 82.5C246.211 88.3542 247.711 94.7292 249.461 101.625C250.295 105.521 251.753 113.021 253.836 124.125C253.399 124.292 252.44 124.417 250.961 124.5V124.625C251.128 125.729 251.211 126.312 251.211 126.375C249.107 126.792 246.982 127 244.836 127H238.586C238.357 127 238.024 124.333 237.586 119C237.253 115.917 237.003 114.375 236.836 114.375H235.086C234.336 121.167 233.878 124.958 233.711 125.75H231.461C231.461 127.25 231.295 128 230.961 128H228.211C224.774 128 220.815 127.75 216.336 127.25C218.503 117.833 221.545 106.333 225.461 92.75C226.795 87.8542 227.545 85.2708 227.711 85H229.586C229.753 84.25 229.961 83.5 230.211 82.75C237.753 82.5833 242.67 82.5 244.961 82.5ZM230.961 83.75L222.711 113.75C222.378 114.958 221.545 118.417 220.211 124.125C223.003 124.458 227.211 124.625 232.836 124.625C233.753 116.5 234.295 112 234.461 111.125H240.336C240.607 111.125 241.107 115.25 241.836 123.5C241.92 123.5 241.961 123.583 241.961 123.75H246.461C250.545 123.646 252.586 123.438 252.586 123.125C250.003 108.729 247.67 97.8125 245.586 90.375C244.836 86.9375 244.378 84.6458 244.211 83.5C242.107 83.5833 237.69 83.6667 230.961 83.75ZM237.336 94.75C237.92 95.7292 238.628 97.6042 239.461 100.375C239.795 101.646 239.961 102.438 239.961 102.75L239.711 102.875H234.711L234.461 102.75C235.607 97.4167 236.565 94.75 237.336 94.75ZM256.711 81.625C258.67 81.625 270.253 81.8333 291.461 82.25C291.461 82.3333 291.503 82.375 291.586 82.375C291.836 89.8125 291.961 94.2708 291.961 95.75C290.211 95.9583 289.336 96.0833 289.336 96.125C289.42 97.1667 289.461 97.7917 289.461 98C289.003 98.1667 286.128 98.3333 280.836 98.5L281.461 125.625L281.211 125.75H280.961C280.524 125.75 279.815 125.708 278.836 125.625V125.75C278.836 126.021 278.878 126.729 278.961 127.875L278.711 128C271.628 127.688 268.086 127.396 268.086 127.125L265.711 98.75C265.378 98.6042 261.461 98.2708 253.961 97.75L253.836 97.5V84.125C253.857 83.9583 253.94 83.875 254.086 83.875H256.461V81.875C256.482 81.7083 256.565 81.625 256.711 81.625ZM257.461 82.625V94.5C264.503 95 268.42 95.3333 269.211 95.5C270.711 112.979 271.545 122.521 271.711 124.125C276.357 124.458 279.274 124.625 280.461 124.625V124.5C280.378 123.667 280.128 114 279.711 95.5C280.378 95.3333 284.128 95.125 290.961 94.875C290.878 93.6875 290.753 89.8125 290.586 83.25C270.961 82.9167 259.92 82.7083 257.461 82.625ZM294.961 83H308.586C308.753 83.0208 308.836 83.1042 308.836 83.25V85.75C308.836 93.1667 309.003 102.875 309.336 114.875C309.336 116.062 309.17 119.604 308.836 125.5L308.461 125.75H306.336C306.336 127.25 306.211 128 305.961 128H292.961C292.795 128 292.711 127.917 292.711 127.75C292.711 113.812 292.461 102.562 291.961 94C291.961 93.2083 292.003 90.3333 292.086 85.375L292.336 85.25H294.711V83.25C294.732 83.0833 294.815 83 294.961 83ZM295.711 84C295.628 88.5417 295.586 91.2083 295.586 92C296.086 99.8542 296.336 110.771 296.336 124.75H297.586C300.086 124.75 303.503 124.708 307.836 124.625C308.17 118.812 308.336 115.479 308.336 114.625C308.003 104.167 307.795 93.9583 307.711 84H295.711ZM333.711 82.375H334.336C343.357 82.375 349.44 85.9583 352.586 93.125C353.586 95.7083 354.086 98.5 354.086 101.5V102.5C354.086 111.417 350.878 118.208 344.461 122.875C340.67 126.292 336.336 128 331.461 128H329.836C323.982 128 318.607 125.5 313.711 120.5C310.795 116.979 309.336 113.146 309.336 109V108.875C309.336 98.9583 312.336 91.9583 318.336 87.875C322.065 84.2083 327.19 82.375 333.711 82.375ZM312.961 106.875C312.961 113.688 316.836 119.062 324.586 123C327.545 124.167 330.378 124.75 333.086 124.75H333.211C341.607 124.75 347.607 120.792 351.211 112.875C352.461 109.375 353.086 105.667 353.086 101.75C353.086 92.2917 348.836 86.4167 340.336 84.125C338.295 83.625 336.211 83.375 334.086 83.375C323.44 83.375 316.774 88 314.086 97.25C313.336 100 312.961 103.208 312.961 106.875ZM333.961 95.875H334.211C339.107 95.875 342.149 98.2917 343.336 103.125C343.42 103.833 343.461 104.417 343.461 104.875V105.375C343.461 110.021 340.92 113.229 335.836 115C335.128 115.083 334.545 115.125 334.086 115.125C331.17 115.125 328.545 112.917 326.211 108.5C325.878 107.292 325.711 106.375 325.711 105.75V105.5C325.711 101.75 327.42 98.7917 330.836 96.625C331.899 96.125 332.94 95.875 333.961 95.875ZM326.711 105.625C326.711 108.562 328.503 111.229 332.086 113.625C333.107 113.958 333.857 114.125 334.336 114.125C336.92 114.125 338.586 112.917 339.336 110.5C339.67 109.562 339.836 108.562 339.836 107.5C339.836 103.771 338.336 101.229 335.336 99.875C334.024 99.375 332.732 99.125 331.461 99.125C329.42 99.125 328.17 99.9583 327.711 101.625C327.045 102.896 326.711 104.229 326.711 105.625ZM357.711 83.125H364.711C364.92 83.1875 367.42 86.7708 372.211 93.875V86.125C372.232 85.9583 372.315 85.875 372.461 85.875H374.836V83.875C374.857 83.7083 374.94 83.625 375.086 83.625C380.461 83.5417 384.795 83.5 388.086 83.5C388.253 83.5208 388.336 83.6042 388.336 83.75C387.253 100.417 386.253 114.25 385.336 125.25L384.961 125.5H382.836C382.836 127 382.711 127.75 382.461 127.75C378.482 127.667 376.149 127.625 375.461 127.625C372.211 122.875 370.003 119.792 368.836 118.375V125.5C368.836 125.667 368.753 125.75 368.586 125.75H366.336V127.75C366.336 127.917 366.253 128 366.086 128H361.211C356.461 128 354.086 127.792 354.086 127.375C354.753 118 355.086 110.5 355.086 104.875V99.25C355.086 95.8542 355.045 91.2708 354.961 85.5L355.211 85.375H357.586C357.503 84.3958 357.461 83.6875 357.461 83.25L357.711 83.125ZM358.586 84.25C358.67 88.5 358.711 91.8333 358.711 94.25V103.375C358.711 107.812 358.42 114.729 357.836 124.125C357.753 124.292 357.711 124.417 357.711 124.5C360.711 124.667 364.086 124.75 367.836 124.75V110C367.857 109.833 367.94 109.75 368.086 109.75C371.795 114.708 375.295 119.542 378.586 124.25C379.149 124.333 379.607 124.375 379.961 124.375H381.836C382.378 124.375 383.211 124.417 384.336 124.5C386.253 100.042 387.211 86.75 387.211 84.625H375.836V100.875H375.711L364.336 84.25H358.586ZM415.086 82.5H422.711C426.086 82.5 428.378 83.1667 429.586 84.5C432.753 87.1667 434.336 91.1667 434.336 96.5V97.375C434.336 101.146 432.961 103.812 430.211 105.375L429.211 106.625V106.75C431.524 108 433.274 110.333 434.461 113.75C434.628 114.417 434.711 115.125 434.711 115.875V116.125C434.711 120.125 433.253 122.958 430.336 124.625C428.482 126.875 425.774 128 422.211 128C412.086 128 406.128 127.625 404.336 126.875C404.253 124 404.211 122.5 404.211 122.375C404.211 114.75 404.128 102.292 403.961 85L404.211 84.875H406.586V82.875L406.711 82.625C410.357 82.5417 413.149 82.5 415.086 82.5ZM407.586 83.625V83.75C407.753 97.7708 407.836 109.521 407.836 119C407.92 121.542 407.961 123.167 407.961 123.875C407.961 124.208 413.503 124.5 424.586 124.75C428.482 124.75 431.232 123.375 432.836 120.625C433.42 118.833 433.711 117.25 433.711 115.875C433.711 113.104 432.253 110.479 429.336 108C428.461 107.333 426.878 106.833 424.586 106.5C424.586 106.125 424.545 105.875 424.461 105.75L429.461 104.5C432.045 103.458 433.336 100.833 433.336 96.625C433.336 90.2917 431.128 86.0833 426.711 84C426.399 83.6667 424.399 83.5 420.711 83.5C419.878 83.5 415.503 83.5417 407.586 83.625ZM421.586 91.625C423.17 92.1458 423.961 93.1875 423.961 94.75V95.25C423.961 97.2917 422.378 98.7083 419.211 99.5C418.482 99.5833 417.857 99.625 417.336 99.625H416.961C416.795 99.625 416.711 99.5417 416.711 99.375V92.25C416.711 91.9792 418.336 91.7708 421.586 91.625ZM417.711 95V98.625C419.461 98.625 420.336 98.25 420.336 97.5V97C420.107 95.5833 419.524 94.875 418.586 94.875L417.711 95ZM419.836 113.25C422.024 113.25 423.44 113.833 424.086 115C424.253 115.312 424.336 115.646 424.336 116V116.375C424.336 117.958 423.086 119.042 420.586 119.625C419.815 119.875 418.857 120 417.711 120H416.711C416.545 120 416.461 119.917 416.461 119.75V118.875C416.461 117.583 416.503 115.833 416.586 113.625C417.378 113.375 418.461 113.25 419.836 113.25ZM417.586 116.625V119C418.065 119 419.107 118.875 420.711 118.625V118.25C420.482 117.167 419.565 116.625 417.961 116.625H417.586ZM437.586 84.5H451.586L451.836 84.625C451.92 91.125 451.961 96.2083 451.961 99.875V114.75H452.086C455.503 114.917 457.503 115 458.086 115H461.211C461.378 115.021 461.461 115.104 461.461 115.25C461.378 119.458 461.336 122.75 461.336 125.125V125.5C461.336 125.667 461.253 125.75 461.086 125.75H458.836V127.75C458.836 127.917 458.711 128 458.461 128C454.961 128 447.42 127.833 435.836 127.5C435.753 127.333 435.711 127.208 435.711 127.125C435.711 119.562 435.378 106.146 434.711 86.875L434.961 86.75H437.336V84.75C437.357 84.5833 437.44 84.5 437.586 84.5ZM438.336 85.625C438.336 85.7083 438.378 85.8333 438.461 86C438.461 87.5 438.711 97 439.211 114.5C439.295 114.5 439.336 117.75 439.336 124.25H440.086L460.336 124.75V116L460.086 116.125H459.211C458.774 116.125 456.065 116 451.086 115.75C451.003 115.583 450.961 115.458 450.961 115.375C450.961 109.354 450.92 99.3958 450.836 85.5H449.586C446.878 85.5 443.128 85.5417 438.336 85.625ZM485.836 82.375H486.461C495.482 82.375 501.565 85.9583 504.711 93.125C505.711 95.7083 506.211 98.5 506.211 101.5V102.5C506.211 111.417 503.003 118.208 496.586 122.875C492.795 126.292 488.461 128 483.586 128H481.961C476.107 128 470.732 125.5 465.836 120.5C462.92 116.979 461.461 113.146 461.461 109V108.875C461.461 98.9583 464.461 91.9583 470.461 87.875C474.19 84.2083 479.315 82.375 485.836 82.375ZM465.086 106.875C465.086 113.688 468.961 119.062 476.711 123C479.67 124.167 482.503 124.75 485.211 124.75H485.336C493.732 124.75 499.732 120.792 503.336 112.875C504.586 109.375 505.211 105.667 505.211 101.75C505.211 92.2917 500.961 86.4167 492.461 84.125C490.42 83.625 488.336 83.375 486.211 83.375C475.565 83.375 468.899 88 466.211 97.25C465.461 100 465.086 103.208 465.086 106.875ZM486.086 95.875H486.336C491.232 95.875 494.274 98.2917 495.461 103.125C495.545 103.833 495.586 104.417 495.586 104.875V105.375C495.586 110.021 493.045 113.229 487.961 115C487.253 115.083 486.67 115.125 486.211 115.125C483.295 115.125 480.67 112.917 478.336 108.5C478.003 107.292 477.836 106.375 477.836 105.75V105.5C477.836 101.75 479.545 98.7917 482.961 96.625C484.024 96.125 485.065 95.875 486.086 95.875ZM478.836 105.625C478.836 108.562 480.628 111.229 484.211 113.625C485.232 113.958 485.982 114.125 486.461 114.125C489.045 114.125 490.711 112.917 491.461 110.5C491.795 109.562 491.961 108.562 491.961 107.5C491.961 103.771 490.461 101.229 487.461 99.875C486.149 99.375 484.857 99.125 483.586 99.125C481.545 99.125 480.295 99.9583 479.836 101.625C479.17 102.896 478.836 104.229 478.836 105.625ZM528.086 80.875H528.836C533.607 80.875 537.69 82.9583 541.086 87.125C539.67 92.0833 537.753 95.875 535.336 98.5C535.065 98.3333 534.815 98.25 534.586 98.25C534.545 98.6667 533.92 99.5 532.711 100.75C530.274 99.3333 528.149 98.625 526.336 98.625C524.17 98.625 522.961 99.375 522.711 100.875C522.128 101.729 521.836 102.938 521.836 104.5V104.625C521.836 107.917 523.128 110.667 525.711 112.875C526.399 113.375 527.149 113.625 527.961 113.625C528.003 113.625 528.17 113.583 528.461 113.5V113.25C526.128 112.688 524.961 112.146 524.961 111.625C524.878 109.521 524.836 107.854 524.836 106.625C524.899 105.125 525.065 104.375 525.336 104.375H527.211C527.357 104.375 527.524 103.667 527.711 102.25L527.961 102.125H544.211C544.545 102.125 544.711 103.958 544.711 107.625V111.625C544.711 111.792 544.628 111.875 544.461 111.875H544.211C543.774 111.875 543.065 111.833 542.086 111.75V113.875C542.086 114.042 541.961 114.125 541.711 114.125C541.336 114.125 540.42 114.083 538.961 114C538.503 116.833 537.628 119 536.336 120.5C531.961 124.625 528.878 126.917 527.086 127.375C525.69 127.792 524.482 128 523.461 128H522.961C518.378 128 514.17 125.292 510.336 119.875C507.586 114.917 506.211 110.333 506.211 106.125C506.211 99.6667 508.253 93.9167 512.336 88.875C516.649 84.8125 519.857 82.5208 521.961 82C524.107 81.25 526.149 80.875 528.086 80.875ZM509.836 104.125C509.836 108.917 511.67 113.917 515.336 119.125C518.586 122.875 522.128 124.75 525.961 124.75C529.336 124.75 532.753 122.833 536.211 119C537.461 116.771 538.086 114.188 538.086 111.25V110.75C538.107 110.583 538.19 110.5 538.336 110.5C539.44 110.583 541.19 110.625 543.586 110.625C543.67 110.167 543.711 109.792 543.711 109.5V108.75C543.711 106.417 543.628 104.583 543.461 103.25C537.753 103.167 533.295 103.125 530.086 103.125H528.586L528.461 104V104.5C528.461 105.479 528.503 107.021 528.586 109.125C530.92 109.875 532.253 110.333 532.586 110.5C531.086 113.25 529.545 114.625 527.961 114.625H527.836C524.586 114.625 522.253 111.75 520.836 106V103.875C520.836 101.458 521.961 99.1667 524.211 97C525.503 95.9167 527.086 95.375 528.961 95.375C530.607 95.375 532.69 95.9583 535.211 97.125C537.107 94.5208 538.524 91.7708 539.461 88.875C539.711 87.9583 539.836 87.4583 539.836 87.375C536.961 83.7083 533.128 81.875 528.336 81.875C522.399 81.875 517.524 84.5417 513.711 89.875C511.128 94.4792 509.836 99.2292 509.836 104.125Z" fill="black"/>
</svg>
